<?xml version="1.0" encoding="UTF-8"?>
<svg version="1.1" xmlns="http://www.w3.org/2000/svg" width="541" height="417">
<path d="M0 0 C1.1859375 -0.02835938 2.371875 -0.05671875 3.59375 -0.0859375 C16.77007466 -0.11470677 27.01750758 4.42649091 37.25 12.5 C37.87390625 12.96019531 38.4978125 13.42039062 39.140625 13.89453125 C50.16561483 22.51090844 57.00217877 35.86910829 59.25 49.5 C59.49632465 53.07856537 59.48495011 56.63701334 59.4453125 60.22265625 C59.44329834 61.09821167 59.44128418 61.97376709 59.43920898 62.87585449 C59.42885041 66.10479065 59.400929 69.33365134 59.375 72.5625 C59.33375 79.801875 59.2925 87.04125 59.25 94.5 C79.38 94.5 99.51 94.5 120.25 94.5 C120.17116191 80.46989138 120.17116191 80.46989138 120.06982422 66.43994141 C120.06397438 64.66048423 120.05887999 62.88102435 120.0546875 61.1015625 C120.04445557 60.20268311 120.03422363 59.30380371 120.02368164 58.37768555 C120.01902604 41.19387547 126.93096389 27.92538895 138.75 15.75 C147.21373057 7.5 147.21373057 7.5 152.25 7.5 C152.25 6.84 152.25 6.18 152.25 5.5 C161.43502204 1.31372023 169.18607309 -0.29162131 179.25 -0.125 C180.41789063 -0.14433594 181.58578125 -0.16367187 182.7890625 -0.18359375 C199.03965219 -0.09351288 210.83285329 7.35178377 222.4375 18.125 C236.58718092 32.81543306 238.7406611 49.08145263 238.53125 68.72192383 C238.49966767 71.7190374 238.4902276 74.71562596 238.484375 77.71289062 C238.47522015 79.61458983 238.46484928 81.51628365 238.453125 83.41796875 C238.44887512 84.31573532 238.44462524 85.21350189 238.44024658 86.13847351 C238.36727117 92.38272883 238.36727117 92.38272883 237.25 93.5 C234.65640678 93.58851529 232.08960309 93.61525945 229.49609375 93.59765625 C228.72064713 93.5962413 227.9452005 93.59482635 227.14625549 93.59336853 C224.65996506 93.58775345 222.1737634 93.57519846 219.6875 93.5625 C218.00586067 93.55748694 216.32421994 93.5529237 214.64257812 93.54882812 C210.51168434 93.53777913 206.38085724 93.52050445 202.25 93.5 C200.61992691 90.23985383 201.09247079 86.63848814 201.07421875 83.0546875 C201.05100486 81.32030057 201.02688691 79.58592555 201.00195312 77.8515625 C200.96696078 75.11971249 200.93756567 72.38829595 200.92407227 69.65625 C200.90849212 67.01769308 200.86820415 64.38040469 200.82421875 61.7421875 C200.82708138 60.533918 200.82708138 60.533918 200.83000183 59.30123901 C200.69642586 53.03389501 199.14030807 47.71299168 194.87382507 42.97018433 C189.38101148 38.04042509 183.84188132 37.08548691 176.7109375 37.24609375 C171.03863128 37.83133169 166.22007229 40.42262846 162.25 44.5 C155.51391922 58.10524771 155.51391922 58.10524771 157.25 94.5 C204.11 94.5 250.97 94.5 299.25 94.5 C299.25 79.32 299.25 64.14 299.25 48.5 C303.20928655 35.63231872 307.08508096 26.19094088 316.25 16.5 C316.91 16.5 317.57 16.5 318.25 16.5 C318.25 15.84 318.25 15.18 318.25 14.5 C330.18852659 4.4157552 342.41450489 0.13532289 357.8125 0.0625 C359.61170898 0.01319336 359.61170898 0.01319336 361.44726562 -0.03710938 C373.25098062 -0.10718 383.01215712 3.31918259 392.5625 10.1875 C393.40458008 10.77241211 393.40458008 10.77241211 394.26367188 11.36914062 C395.63856555 12.35120754 396.95183012 13.41854588 398.25 14.5 C398.25 15.16 398.25 15.82 398.25 16.5 C399.10078125 16.809375 399.10078125 16.809375 399.96875 17.125 C403.06473553 18.99107347 404.76307154 21.56368593 406.75 24.5 C407.87921875 26.10875 407.87921875 26.10875 409.03125 27.75 C414.3423695 36.28348428 415.83033301 43.87393927 415.640625 53.8515625 C415.63496521 54.99160736 415.62930542 56.13165222 415.62347412 57.3062439 C415.60125659 60.91294067 415.55108613 64.5186084 415.5 68.125 C415.47991617 70.58462097 415.46166872 73.04425767 415.4453125 75.50390625 C415.40143985 81.50294953 415.33467526 87.50140121 415.25 93.5 C410.58692986 93.54937279 405.92401127 93.58570627 401.26074219 93.60986328 C399.67380117 93.61993188 398.08687875 93.63358767 396.5 93.65087891 C394.22130753 93.67509001 391.94285994 93.68647422 389.6640625 93.6953125 C388.95255035 93.70563507 388.24103821 93.71595764 387.50796509 93.72659302 C385.75368335 93.72699422 384.00003291 93.62202209 382.25 93.5 C379.27498587 90.52498587 379.95213101 87.26148457 379.94140625 83.2734375 C379.91622538 81.58463228 379.89082769 79.89583027 379.86523438 78.20703125 C379.83661047 75.54769893 379.81259537 72.88842325 379.79370117 70.22900391 C379.77188262 67.66016861 379.73240953 65.09202819 379.69140625 62.5234375 C379.69123253 61.34797867 379.69123253 61.34797867 379.6910553 60.14877319 C379.58310761 54.04901545 378.55009438 48.38486414 374.63671875 43.4765625 C368.71134698 38.76350817 363.53282941 36.95606554 355.9140625 37.1171875 C349.97701082 37.97031223 345.00569213 40.78820017 340.75 44.9375 C337.27701516 50.87051576 336.92498527 56.35589545 336.8359375 63.0546875 C336.80947144 64.25460327 336.80947144 64.25460327 336.7824707 65.47875977 C336.7197877 68.44397523 336.67333659 71.40951598 336.625 74.375 C336.50125 81.01625 336.3775 87.6575 336.25 94.5 C362.32 94.5 388.39 94.5 415.25 94.5 C415.25 107.04 415.25 119.58 415.25 132.5 C390.83 132.83 366.41 133.16 341.25 133.5 C347.99662247 148.90585614 347.99662247 148.90585614 360.25 160.5 C360.25 161.16 360.25 161.82 360.25 162.5 C360.97832031 162.74621094 361.70664062 162.99242187 362.45703125 163.24609375 C365.53896422 164.62973079 367.47773713 166.26143151 369.9375 168.5625 C372.86431801 171.36293113 372.86431801 171.36293113 376.25 173.5 C376.25 174.16 376.25 174.82 376.25 175.5 C376.80042969 175.74234375 377.35085938 175.9846875 377.91796875 176.234375 C381.8510375 178.36890477 385.09336215 181.35666986 388.51171875 184.22265625 C390.04550623 185.49825982 391.59771282 186.75471178 393.20703125 187.93359375 C402.11521127 194.63037545 408.55524075 207.18434005 412.25 217.5 C412.49480103 218.12729004 412.73960205 218.75458008 412.99182129 219.40087891 C416.41796037 229.65551454 415.76293709 240.49564238 415.7890625 251.17578125 C415.80126403 253.39096734 415.81375068 255.60615188 415.82650757 257.82133484 C415.84890445 262.45180958 415.85852938 267.08212066 415.86083984 271.71264648 C415.8661209 277.61361475 415.91747609 283.51320308 415.98035622 289.41380024 C416.02143625 293.98580662 416.03048363 298.55748537 416.03095627 303.12965965 C416.03630262 305.3035689 416.05299977 307.47748392 416.08180618 309.65120888 C416.29065797 326.84124963 413.60099879 337.34199238 402.73046875 351.0234375 C401.25 352.5 401.25 352.5 399.25 352.5 C398.96189453 353.34884766 398.96189453 353.34884766 398.66796875 354.21484375 C396.64987032 357.46715114 393.75001118 359.09559664 390.5625 361.0625 C389.96244141 361.44857422 389.36238281 361.83464844 388.74414062 362.23242188 C381.9733557 366.5014345 376.27997202 368.96494929 368.18359375 369.0390625 C367.4276442 369.05141937 366.67169464 369.06377625 365.89283752 369.07650757 C364.29867197 369.09597701 362.70438791 369.10728875 361.11010742 369.11083984 C358.71644448 369.12483082 356.32815029 369.19212472 353.93554688 369.26171875 C339.18533604 369.4718556 329.07826952 364.98930265 318.31640625 354.58203125 C317.63449219 353.89496094 316.95257813 353.20789063 316.25 352.5 C315.68152344 351.96761719 315.11304688 351.43523437 314.52734375 350.88671875 C313.38515702 349.80816359 312.30673273 348.662406 311.25 347.5 C311.25 346.84 311.25 346.18 311.25 345.5 C310.59 345.5 309.93 345.5 309.25 345.5 C308.1350641 343.38009448 307.03326499 341.25479674 305.9375 339.125 C305.4744043 338.24908203 305.4744043 338.24908203 305.00195312 337.35546875 C299.56793961 326.71624228 298.81894336 317.18066901 298.96875 305.41967773 C299.00032359 302.9117976 299.00977131 300.40454496 299.015625 297.89648438 C299.02478025 296.30467975 299.03515126 294.71288153 299.046875 293.12109375 C299.05112488 292.37016953 299.05537476 291.6192453 299.05975342 290.8455658 C299.13272174 285.61727826 299.13272174 285.61727826 300.25 284.5 C302.83189446 284.39908525 305.386465 284.36028501 307.96875 284.3671875 C308.74182495 284.36623077 309.5148999 284.36527405 310.31140137 284.36428833 C311.94897544 284.36360659 313.58655219 284.36546043 315.22412109 284.36962891 C317.73931921 284.37497729 320.25433873 284.36968374 322.76953125 284.36328125 C324.35677123 284.36394203 325.9440111 284.3652232 327.53125 284.3671875 C328.6671759 284.36415115 328.6671759 284.36415115 329.8260498 284.36105347 C335.13504868 284.38504868 335.13504868 284.38504868 336.25 285.5 C336.37230429 287.70867158 336.4298331 289.92097593 336.4609375 292.1328125 C336.48903435 293.51042797 336.51769896 294.88803196 336.546875 296.265625 C336.58793357 298.43781872 336.62481427 300.60980457 336.65136719 302.78222656 C336.67921785 304.87870899 336.72511527 306.97421464 336.7734375 309.0703125 C336.79325684 310.32602051 336.81307617 311.58172852 336.83349609 312.87548828 C337.59967929 319.54298874 340.09647522 324.08269305 345.25 328.5 C351.55761729 332.70507819 357.24134261 333.47047877 364.62890625 332.0390625 C369.90961563 330.52007672 374.25698257 328.2495752 377.25 323.5 C379.81806866 316.77015471 379.53863791 310.09446599 379.515625 302.96484375 C379.51753845 301.65399307 379.5194519 300.3431424 379.52142334 298.99256897 C379.52436259 296.22131617 379.52012062 293.45019276 379.51074219 290.67895508 C379.49942671 287.16832708 379.50586407 283.65800767 379.51788712 280.14739132 C379.52696567 276.75318592 379.52055436 273.35905784 379.515625 269.96484375 C379.52169769 268.10471901 379.52169769 268.10471901 379.52789307 266.20701599 C379.42457474 246.57991798 375.61134392 228.167639 361.6875 213.5 C355.12913823 207.27730241 347.76690219 201.51126813 340.25 196.5 C340.25 195.84 340.25 195.18 340.25 194.5 C339.72277344 194.27957031 339.19554687 194.05914062 338.65234375 193.83203125 C335.37115217 192.01270389 332.64315232 189.62347851 329.8125 187.1875 C329.25240234 186.71376953 328.69230469 186.24003906 328.11523438 185.75195312 C321.99965591 180.53551455 316.93993577 175.01379968 312.25 168.5 C311.569375 167.613125 310.88875 166.72625 310.1875 165.8125 C304.5027146 156.09335076 300.25 143.82867228 300.25 132.5 C254.71 132.83 209.17 133.16 162.25 133.5 C169.46941367 149.07361841 169.46941367 149.07361841 181.25 160.5 C181.25 161.16 181.25 161.82 181.25 162.5 C182.3328125 162.8403125 182.3328125 162.8403125 183.4375 163.1875 C186.80855233 164.76065775 188.65965057 166.84647131 191.25 169.5 C192.343125 170.221875 193.43625 170.94375 194.5625 171.6875 C195.449375 172.285625 196.33625 172.88375 197.25 173.5 C197.25 174.16 197.25 174.82 197.25 175.5 C198.0234375 175.8403125 198.0234375 175.8403125 198.8125 176.1875 C202.14547005 177.98217618 205.39703671 179.99965015 208.25 182.5 C208.25 183.16 208.25 183.82 208.25 184.5 C209.054375 184.8403125 209.054375 184.8403125 209.875 185.1875 C222.23156523 192.01612816 229.79466598 206.51985251 234.25 219.5 C236.52819433 227.96920253 238.30587705 236.71390124 238.25 245.5 C239.46300278 245.49777939 240.67600555 245.49555878 241.92576599 245.49327087 C253.33046604 245.47304128 264.73516248 245.45802874 276.13987637 245.44818783 C282.00382164 245.44295854 287.86775249 245.43586006 293.73168945 245.42456055 C299.38561712 245.4137333 305.03953087 245.40772351 310.69346809 245.40512276 C312.8557361 245.40326821 315.01800331 245.39964705 317.18026543 245.39426994 C320.19758657 245.38706167 323.21484943 245.38600897 326.23217773 245.38647461 C327.58731728 245.3810817 327.58731728 245.3810817 328.96983337 245.37557983 C335.13594784 245.38594784 335.13594784 245.38594784 336.25 246.5 C336.35095564 249.15456193 336.38970998 251.78255176 336.3828125 254.4375 C336.38424759 255.63040649 336.38424759 255.63040649 336.38571167 256.84741211 C336.38639343 258.5320646 336.38453943 260.21671971 336.38037109 261.90136719 C336.37502275 264.48899197 336.38031619 267.07644316 336.38671875 269.6640625 C336.38605797 271.29687539 336.3847768 272.92968816 336.3828125 274.5625 C336.38483673 275.34165771 336.38686096 276.12081543 336.38894653 276.92358398 C336.36495105 282.38504895 336.36495105 282.38504895 335.25 283.5 C332.23649762 283.59529612 329.24595894 283.62551904 326.23217773 283.61352539 C325.28593536 283.61367142 324.33969299 283.61381744 323.36477661 283.6139679 C320.22102608 283.61326836 317.07733399 283.60547409 313.93359375 283.59765625 C311.76025932 283.59579221 309.58692448 283.59436824 307.41358948 283.59336853 C301.68098805 283.58954221 295.94841177 283.57971097 290.21582031 283.56866455 C284.37109721 283.55845287 278.52637007 283.55387143 272.68164062 283.54882812 C261.204416 283.5380888 249.72721009 283.52101102 238.25 283.5 C238.28847549 284.41798874 238.32695099 285.33597748 238.36659241 286.28178406 C238.50652147 289.73192229 238.63764486 293.18217394 238.76307678 296.63285828 C238.81880884 298.11799752 238.87791095 299.6030147 238.94062805 301.08787537 C239.76257889 320.68065928 236.33999489 335.76131742 223.4296875 351.15625 C214.1687905 361.11420376 202.31284228 368.89887059 188.5 369.4296875 C186.19140212 369.46472886 183.8904688 369.45672955 181.58203125 369.41259766 C179.24937114 369.37498986 176.9261285 369.41244166 174.59375 369.45703125 C160.3125835 369.50328038 149.8641091 364.90490166 139.48828125 354.80078125 C138.74964844 354.04152344 138.01101562 353.28226562 137.25 352.5 C136.18845703 351.46939453 136.18845703 351.46939453 135.10546875 350.41796875 C122.23543829 337.15420887 119.8887788 321.86331671 120.04418945 304.1081543 C120.062733 301.90987834 120.06469655 299.71201881 120.06445312 297.51367188 C120.10196869 286.79606262 120.10196869 286.79606262 121.25 284.5 C132.8 284.5 144.35 284.5 156.25 284.5 C157.66826121 287.33652242 157.3959368 289.77252692 157.42578125 292.94140625 C157.44962891 294.24787109 157.47347656 295.55433594 157.49804688 296.90039062 C157.53291957 298.97153624 157.5623666 301.04212422 157.57592773 303.11352539 C157.64792573 312.31930044 157.72031672 320.61643521 164.25 327.65625 C164.91 328.0996875 165.57 328.543125 166.25 329 C167.24 329.69609375 167.24 329.69609375 168.25 330.40625 C173.79972561 333.44125619 180.66190415 333.40132968 186.69140625 331.88671875 C192.66893099 329.59078285 196.08119708 326.01145365 199.25 320.5 C203.15583609 308.78249173 200.88688237 295.8459994 201.25 283.5 C154.39 283.5 107.53 283.5 59.25 283.5 C59.25 296.04 59.25 308.58 59.25 321.5 C52.99245087 341.83703468 44.51192794 354.4640072 26.08203125 365.01953125 C20.77136559 367.79572751 16.52295958 368.82530074 10.52734375 368.87109375 C9.786017 368.88012222 9.04469025 368.8891507 8.28089905 368.89845276 C6.71342986 368.91292171 5.14590073 368.92183364 3.57836914 368.92553711 C1.21847933 368.93734499 -1.1387151 368.98647994 -3.49804688 369.03710938 C-15.95935744 369.1733808 -26.0072709 366.57419212 -35.875 358.5625 C-36.45556152 358.0979541 -37.03612305 357.6334082 -37.63427734 357.15478516 C-46.17467831 349.98875569 -53.21912959 340.11180074 -56.75 329.5 C-57.08916978 328.53013122 -57.42833956 327.56026243 -57.77778721 326.56100368 C-59.1903147 321.54736462 -59.03622886 316.53734164 -59.02415466 311.36378479 C-59.02939134 310.25019952 -59.03462802 309.13661425 -59.04002339 307.98928398 C-59.05501209 304.26178112 -59.05572831 300.53441568 -59.05639648 296.80688477 C-59.06401892 294.13233366 -59.07239816 291.45779402 -59.08161926 288.7832489 C-59.10443089 281.51835855 -59.11238628 274.25349749 -59.11744571 266.98857617 C-59.1207083 262.44604831 -59.12723432 257.90352887 -59.1344471 253.36100578 C-59.15401088 240.76686788 -59.17041544 228.17273779 -59.17332363 215.57858372 C-59.1735112 214.77322908 -59.17369877 213.96787443 -59.17389202 213.1381151 C-59.17425826 211.50567019 -59.17462196 209.87322528 -59.17498314 208.24078036 C-59.17516595 207.43050497 -59.17534876 206.62022958 -59.17553711 205.78540039 C-59.17571766 204.97412742 -59.17589821 204.16285445 -59.17608423 203.32699745 C-59.17962156 190.19819595 -59.2066173 177.06955891 -59.244035 163.94081438 C-59.28220527 150.43911859 -59.30148176 136.93750419 -59.30178314 123.43575329 C-59.30236589 115.86422224 -59.31073846 108.29288723 -59.33978081 100.72140694 C-59.36441212 94.2704959 -59.37149933 87.81985233 -59.35653328 81.36890686 C-59.34941087 78.08369539 -59.35279157 74.79911514 -59.37294388 71.51394272 C-59.48212561 52.54927317 -58.88130663 36.41143094 -45.75 21.5 C-44.9971875 20.63761719 -44.244375 19.77523437 -43.46875 18.88671875 C-31.03349197 5.58341511 -17.88535531 -0.03838059 0 0 Z M-18.3125 45.625 C-20.89507534 49.3854638 -21.87403345 52.43129931 -21.88422108 56.9854002 C-21.88867892 57.90953958 -21.89313676 58.83367896 -21.89772969 59.78582257 C-21.89754533 60.80272839 -21.89736097 61.8196342 -21.89717102 62.86735535 C-21.90084771 63.94641547 -21.9045244 65.02547559 -21.9083125 66.13723451 C-21.91937038 69.77142606 -21.92319675 73.40558904 -21.92700195 77.03979492 C-21.93326499 79.63806245 -21.93991165 82.23632908 -21.94691467 84.83459473 C-21.96667678 92.64508858 -21.97674511 100.45558372 -21.98564246 108.26609632 C-21.9900259 111.94451686 -21.99539258 115.62293596 -22.00063133 119.30135536 C-22.01764359 131.52990895 -22.03213757 143.75846165 -22.03938007 155.98702526 C-22.04128996 159.16037688 -22.04321029 162.33372849 -22.04516602 165.50708008 C-22.04564976 166.295798 -22.0461335 167.08451593 -22.0466319 167.8971344 C-22.05493147 180.67267354 -22.08026714 193.44811903 -22.11274669 206.22361728 C-22.14582328 219.34093672 -22.16382939 232.45820857 -22.16702431 245.57556993 C-22.16918889 252.94008428 -22.17792978 260.30446208 -22.20348549 267.66893578 C-22.22747213 274.59724142 -22.23101438 281.52529759 -22.22072411 288.45363617 C-22.22022773 290.99651468 -22.22657797 293.53940514 -22.24028015 296.08224678 C-22.25794284 299.55436914 -22.25091952 303.0256038 -22.23774719 306.49772644 C-22.25420106 308.00635475 -22.25420106 308.00635475 -22.27098733 309.5454604 C-22.2055401 316.69340082 -20.69948199 322.01179984 -16.0390625 327.5234375 C-10.12301057 332.32849376 -4.98903565 334.004137 2.66015625 333.80859375 C9.68180997 332.97192611 14.59626385 329.84152893 19.05859375 324.4765625 C22.64490381 318.52681532 22.5341842 312.64654128 22.50396729 305.92373657 C22.50708727 304.85844738 22.51020725 303.7931582 22.51342177 302.69558752 C22.52139906 299.12594086 22.51507903 295.55646433 22.50878906 291.98681641 C22.51149907 289.42751465 22.51506006 286.86821368 22.51940918 284.30891418 C22.52758725 278.0786037 22.52638299 271.84835619 22.5205839 265.61804487 C22.51606485 260.55293954 22.51545556 255.48784771 22.51763153 250.42274094 C22.517938 249.70149438 22.51824446 248.98024781 22.51856022 248.2371453 C22.51919968 246.77186335 22.5198481 245.3065814 22.5205054 243.84129946 C22.5262076 230.10316342 22.51965296 216.36505408 22.50890467 202.62692241 C22.49997305 190.84632031 22.50151819 179.06575764 22.51074219 167.28515625 C22.52145332 153.59885998 22.52565428 139.91258712 22.51951766 126.22628725 C22.51888058 124.7658217 22.51825184 123.30535615 22.51763153 121.84489059 C22.51732298 121.12635344 22.51701443 120.40781628 22.51669653 119.66750527 C22.51497183 114.6111927 22.51787991 109.55489501 22.52259064 104.49858475 C22.52879665 97.68765274 22.52435658 90.87680653 22.51280212 84.06587791 C22.51015842 81.56654547 22.51091569 79.06720676 22.51532745 76.56787682 C22.52079573 73.15524368 22.51393285 69.74284869 22.50396729 66.33023071 C22.51065945 64.84801763 22.51065945 64.84801763 22.51748681 63.33586085 C22.47178818 55.26252117 21.82680675 48.12984758 16.07421875 42.04296875 C10.756085 37.5447614 4.72153877 35.72493359 -2.19921875 36.05859375 C-8.93056059 37.22343545 -14.13944809 40.22692331 -18.3125 45.625 Z M59.25 132.5 C59.25 169.79 59.25 207.08 59.25 245.5 C105.45 245.5 151.65 245.5 199.25 245.5 C196.90619585 234.31915187 196.90619585 234.31915187 192.125 224.75 C191.73175537 224.12150146 191.33851074 223.49300293 190.93334961 222.84545898 C185.68272933 214.72649269 178.82191085 208.76700549 171.25 202.86328125 C166.6026039 199.20224656 162.05730743 195.41789905 157.5078125 191.63623047 C153.66374047 188.44965208 149.77250374 185.39781134 145.75 182.4375 C130.73592402 170.43645287 124.86625541 150.58127706 121.25 132.5 C100.79 132.5 80.33 132.5 59.25 132.5 Z " fill="#010001" transform="translate(95.75,29.5)"/>
<path d="M0 0 C0.33 0.66 0.66 1.32 1 2 C0.67 2.66 0.34 3.32 0 4 C0.66 4 1.32 4 2 4 C2 4.66 2 5.32 2 6 C1.34 6 0.68 6 0 6 C0 7.32 0 8.64 0 10 C-1.98 10.99 -1.98 10.99 -4 12 C-4 12.99 -4 13.98 -4 15 C-3.34 14.67 -2.68 14.34 -2 14 C-1.82164485 18.54805635 -2.00214565 21.8794254 -4 26 C-4.99 26 -5.98 26 -7 26 C-6.67 115.76 -6.34 205.52 -6 298 C-5.34 298 -4.68 298 -4 298 C-3.94583812 299.60379341 -3.90713362 301.20811406 -3.875 302.8125 C-3.85179687 303.70582031 -3.82859375 304.59914063 -3.8046875 305.51953125 C-4 308 -4 308 -6 311 C-10.43578592 302.73330805 -11.29569814 296.09474232 -11.27415466 286.86378479 C-11.27939134 285.75019952 -11.28462802 284.63661425 -11.29002339 283.48928398 C-11.30501209 279.76178112 -11.30572831 276.03441568 -11.30639648 272.30688477 C-11.31401892 269.63233366 -11.32239816 266.95779402 -11.33161926 264.2832489 C-11.35443089 257.01835855 -11.36238628 249.75349749 -11.36744571 242.48857617 C-11.3707083 237.94604831 -11.37723432 233.40352887 -11.3844471 228.86100578 C-11.40401088 216.26686788 -11.42041544 203.67273779 -11.42332363 191.07858372 C-11.4235112 190.27322908 -11.42369877 189.46787443 -11.42389202 188.6381151 C-11.42425826 187.00567019 -11.42462196 185.37322528 -11.42498314 183.74078036 C-11.42516595 182.93050497 -11.42534876 182.12022958 -11.42553711 181.28540039 C-11.42571766 180.47412742 -11.42589821 179.66285445 -11.42608423 178.82699745 C-11.42962156 165.69819595 -11.4566173 152.56955891 -11.494035 139.44081438 C-11.53220527 125.93911859 -11.55148176 112.43750419 -11.55178314 98.93575329 C-11.55236589 91.36422224 -11.56073846 83.79288723 -11.58978081 76.22140694 C-11.61441212 69.7704959 -11.62149933 63.31985233 -11.60653328 56.86890686 C-11.59941087 53.58369539 -11.60279157 50.29911514 -11.62294388 47.01394272 C-11.8225043 12.35065741 -11.8225043 12.35065741 0 0 Z M3 2 C3.33 2.66 3.66 3.32 4 4 C3.34 3.67 2.68 3.34 2 3 C2.33 2.67 2.66 2.34 3 2 Z " fill="#230302" transform="translate(48,54)"/>
<path d="M0 0 C1.32 0.33 2.64 0.66 4 1 C4 87.79 4 174.58 4 264 C3.01 264 2.02 264 1 264 C0.67 176.88 0.34 89.76 0 0 Z " fill="#1B0806" transform="translate(117,82)"/>
<path d="M0 0 C0.33 0 0.66 0 1 0 C1 85.14 1 170.28 1 258 C0.67 257.34 0.34 256.68 0 256 C-0.66 256 -1.32 256 -2 256 C-2 174.82 -2 93.64 -2 10 C-1.34 10 -0.68 10 0 10 C0 6.7 0 3.4 0 0 Z " fill="#021661" transform="translate(73,86)"/>
<path d="M0 0 C2 3 2 3 1.63269049 4.89319491 C1.42390263 5.58844059 1.21511477 6.28368627 1 7 C0.91260954 8.5677291 0.8762239 10.13871862 0.87695217 11.70888138 C0.87496112 12.65736238 0.87297007 13.60584338 0.87091869 14.58306623 C0.87383153 15.6219709 0.87674437 16.66087557 0.87974548 17.73126221 C0.87889106 18.83723904 0.87803663 19.94321588 0.87715632 21.08270717 C0.87550462 24.80157368 0.88101787 28.52039543 0.88647461 32.23925781 C0.88675657 34.89991355 0.88664263 37.56056652 0.8860321 40.22122192 C0.88550758 45.95609249 0.88864698 51.69095169 0.89426994 57.4258194 C0.90239453 65.71749032 0.90500115 74.00915574 0.90625793 82.30083022 C0.90844694 95.75329097 0.91510294 109.20574566 0.92456055 122.65820312 C0.93373857 135.72656219 0.9408175 148.79491961 0.94506836 161.86328125 C0.94546244 163.07143812 0.94546244 163.07143812 0.94586449 164.3040022 C0.94716952 168.34461889 0.94843323 172.38523559 0.94967639 176.4258523 C0.9600443 209.95057259 0.97765852 243.47528555 1 277 C0.67 277 0.34 277 0 277 C0 275.02 0 273.04 0 271 C-0.66 271 -1.32 271 -2 271 C-2.04576241 237.19828638 -2.08101157 203.39658046 -2.10213066 169.59484275 C-2.10463212 165.60562754 -2.10722076 161.61641239 -2.10986328 157.62719727 C-2.11065021 156.4359093 -2.11065021 156.4359093 -2.11145304 155.22055491 C-2.12015929 142.35553561 -2.13593048 129.49053416 -2.15430559 116.62552545 C-2.17299852 103.4280876 -2.18411544 90.2306591 -2.18817699 77.03320855 C-2.19092331 68.8875154 -2.19960216 60.74187269 -2.21583293 52.59619506 C-2.2276393 46.35356119 -2.22891287 40.11096589 -2.22621536 33.86832237 C-2.22676693 31.30484074 -2.23076292 28.74135725 -2.23841095 26.17788696 C-2.24832308 22.685074 -2.24598241 19.19247899 -2.24050903 15.69966125 C-2.24633472 14.67923322 -2.2521604 13.65880518 -2.25816262 12.60745507 C-2.22212307 4.13141254 -2.22212307 4.13141254 0 0 Z " fill="#482117" transform="translate(39,73)"/>
<path d="M0 0 C2.475 0.495 2.475 0.495 5 1 C5.83596853 7.52889535 6.14075006 13.88151564 6.12025452 20.45936584 C6.12110894 21.4756931 6.12196337 22.49202036 6.12284368 23.53914541 C6.12448307 26.92463409 6.11900245 30.31007257 6.11352539 33.69555664 C6.11324316 36.13035074 6.11340195 38.56514492 6.1139679 40.99993896 C6.11419518 46.23161868 6.11136958 51.46328716 6.10573006 56.69496346 C6.09758172 64.25896538 6.09499642 71.82296128 6.09374207 79.38696712 C6.09155678 91.66089492 6.08491089 103.93481605 6.07543945 116.20874023 C6.06625179 128.12735969 6.05917759 140.04597733 6.05493164 151.96459961 C6.05466892 152.70002301 6.05440619 153.4354464 6.05413551 154.19315536 C6.05283041 157.88278523 6.05156672 161.57241513 6.05032361 165.26204503 C6.03996729 195.84136812 6.02228856 226.42068313 6 257 C5.34 257 4.68 257 4 257 C3.67 173.51 3.34 90.02 3 4 C2.01 3.67 1.02 3.34 0 3 C0 2.01 0 1.02 0 0 Z " fill="#1D0403" transform="translate(117,79)"/>
<path d="M0 0 C3.4339121 2.78639808 4.87572017 4.24011897 5.60127258 8.67634583 C5.61567227 10.11859355 5.60268085 11.56128026 5.56762695 13.00317383 C5.56835709 13.79394318 5.56908722 14.58471252 5.56983948 15.39944458 C5.56636721 18.00268115 5.5275257 20.60410889 5.48828125 23.20703125 C5.47895178 25.01591515 5.4718363 26.82481171 5.46684265 28.63371277 C5.44778331 33.38678072 5.39869187 38.13908053 5.34332275 42.8918457 C5.2921072 47.74484873 5.2693237 52.59797629 5.24414062 57.45117188 C5.19057195 66.96778477 5.10527214 76.48382842 5 86 C4.01 85.34 3.02 84.68 2 84 C1.34 85.32 0.68 86.64 0 88 C-0.66 88 -1.32 88 -2 88 C-1.67547852 86.79601562 -1.35095703 85.59203125 -1.01660156 84.3515625 C0.37601129 78.04534472 0.28671916 71.80735395 0.265625 65.375 C0.26753845 64.07409424 0.2694519 62.77318848 0.27142334 61.43286133 C0.27435726 58.6861492 0.27013879 55.93956789 0.26074219 53.19287109 C0.24943752 49.72465996 0.25603093 46.25675896 0.26764679 42.78855896 C0.30731253 28.74437919 0.26547779 14.89217818 -2 1 C-1.34 0.67 -0.68 0.34 0 0 Z " fill="#190B00" transform="translate(475,267)"/>
<path d="M0 0 C0.99 0.33 1.98 0.66 3 1 C3 38.29 3 75.58 3 114 C2.67 113.34 2.34 112.68 2 112 C1.34 112 0.68 112 0 112 C0 75.04 0 38.08 0 0 Z " fill="#002B42" transform="translate(152,160)"/>
<path d="M0 0 C0.66 0.33 1.32 0.66 2 1 C2.09281698 14.01326662 2.16382463 27.02645406 2.20724869 40.0399847 C2.22809359 46.08317218 2.25635512 52.12613262 2.30175781 58.16918945 C2.3453253 64.00472294 2.3691604 69.8400385 2.37950897 75.67572212 C2.38688072 77.89839672 2.40127598 80.12105984 2.42292023 82.34364128 C2.45209853 85.46494894 2.4559499 88.58536428 2.45410156 91.70678711 C2.46848267 92.61885422 2.48286377 93.53092133 2.49768066 94.47062683 C2.45741575 100.78425353 0.97168992 105.44126947 -2 111 C-2.99 111 -3.98 111 -5 111 C-5.2358396 105.22192976 -4.86783046 100.48675196 -3 95 C-2.34 95 -1.68 95 -1 95 C-1.00444122 94.2484816 -1.00888245 93.4969632 -1.01345825 92.72267151 C-1.05391179 85.56121272 -1.08417267 78.39981109 -1.10362434 71.23826694 C-1.1139615 67.55845234 -1.1279308 63.8787339 -1.15087891 60.19897461 C-1.34106813 28.91312361 -1.34106813 28.91312361 1 15 C0.34 15 -0.32 15 -1 15 C-1.02685412 12.68756208 -1.04632841 10.3750373 -1.0625 8.0625 C-1.07410156 6.77472656 -1.08570313 5.48695313 -1.09765625 4.16015625 C-1 1 -1 1 0 0 Z " fill="#000310" transform="translate(509,257)"/>
<path d="M0 0 C-0.66 5.61 -1.32 11.22 -2 17 C-2.66 17 -3.32 17 -4 17 C-4 98.18 -4 179.36 -4 263 C-3.34 263 -2.68 263 -2 263 C-0.16308743 266.78187881 0.15837626 268.94568308 -1 273 C-1.66 273 -2.32 273 -3 273 C-3 271.02 -3 269.04 -3 267 C-3.66 267 -4.32 267 -5 267 C-5 179.22 -5 91.44 -5 1 C-2 0 -2 0 0 0 Z " fill="#000834" transform="translate(75,79)"/>
<path d="M0 0 C1.32 0.33 2.64 0.66 4 1 C4 84.49 4 167.98 4 254 C3.67 254 3.34 254 3 254 C2.99576806 252.77232218 2.99153612 251.54464436 2.98717594 250.27976418 C2.8864283 221.11545828 2.78070533 191.95117381 2.66888306 162.78690843 C2.65511403 159.19469039 2.64138685 155.6024722 2.62768555 152.01025391 C2.62495724 151.29512947 2.62222894 150.58000502 2.61941796 149.84321015 C2.57538286 138.27489217 2.53473548 126.70656466 2.49534739 115.13823004 C2.45483439 103.26173687 2.41066382 91.38526132 2.36312145 79.50879419 C2.33653266 72.84064362 2.31173494 66.17249392 2.29092598 59.50432205 C2.27127818 53.2253346 2.24711047 46.94638062 2.21950912 40.66742325 C2.21018169 38.36567292 2.20249114 36.06391527 2.19658089 33.76215363 C2.18824608 30.61269048 2.1739496 27.46330696 2.15821838 24.31387329 C2.15724028 23.40917411 2.15626217 22.50447494 2.15525442 21.57236063 C2.10893301 14.33004012 1.90910256 7.02247942 0 0 Z " fill="#4F110A" transform="translate(117,82)"/>
<path d="M0 0 C0.33 0.66 0.66 1.32 1 2 C3.52733235 2.65555119 3.52733235 2.65555119 6 3 C4.66221083 6.60174007 2.98586868 9.71899957 1 13 C0.09592724 15.71221827 -0.13721321 17.35553199 -0.17358398 20.1484375 C-0.18707382 20.97939941 -0.20056366 21.81036133 -0.21446228 22.66650391 C-0.22490067 23.56030762 -0.23533905 24.45411133 -0.24609375 25.375 C-0.27902057 27.26562983 -0.3122324 29.15625472 -0.34570312 31.046875 C-0.39319496 34.02926358 -0.43765268 37.01163045 -0.47680664 39.99414062 C-0.5164507 42.87130201 -0.56800061 45.74805983 -0.62109375 48.625 C-0.6295079 49.51880371 -0.63792206 50.41260742 -0.64659119 51.33349609 C-0.66323318 52.16445801 -0.67987518 52.99541992 -0.69702148 53.8515625 C-0.71248268 54.94718506 -0.71248268 54.94718506 -0.72825623 56.06494141 C-1 58 -1 58 -3 61 C-3.66 61 -4.32 61 -5 61 C-5.07587179 53.63108899 -5.12852436 46.26227814 -5.16479492 38.89306641 C-5.1799103 36.38456458 -5.20040298 33.87608928 -5.22631836 31.36767578 C-5.26258042 27.76848818 -5.27969874 24.169649 -5.29296875 20.5703125 C-5.30845261 19.44319855 -5.32393646 18.31608459 -5.33988953 17.15481567 C-5.34011612 16.11388763 -5.34034271 15.07295959 -5.34057617 14.00048828 C-5.34723801 13.08115509 -5.35389984 12.1618219 -5.36076355 11.21463013 C-5.24171158 10.48380219 -5.12265961 9.75297424 -5 9 C-4.01 8.34 -3.02 7.68 -2 7 C-0.7811879 3.44327821 -0.7811879 3.44327821 0 0 Z " fill="#01040F" transform="translate(433,67)"/>
<path d="M0 0 C2.33164377 3.49746565 1.92921334 4.75837378 1.31079102 8.75195312 C0.7827701 12.57129057 0.78339786 16.39951984 0.71875 20.25 C0.70034058 21.10754883 0.68193115 21.96509766 0.66296387 22.84863281 C0.60473058 25.56569171 0.55169619 28.28280936 0.5 31 C0.43182269 34.58345027 0.35817387 38.16672797 0.28125 41.75 C0.26767456 42.55856445 0.25409912 43.36712891 0.2401123 44.20019531 C0.13215426 49.20112411 -0.30156936 54.04594949 -1 59 C-1.66 59 -2.32 59 -3 59 C-3.94521775 56.16434676 -4.13138231 54.39552996 -4.14526367 51.45605469 C-4.15164352 50.53789978 -4.15802338 49.61974487 -4.16459656 48.67376709 C-4.16570938 47.6831427 -4.1668222 46.69251831 -4.16796875 45.671875 C-4.17129715 44.64950745 -4.17462555 43.62713989 -4.17805481 42.5737915 C-4.18312028 40.40841115 -4.18546325 38.24302299 -4.18530273 36.07763672 C-4.18748225 32.77688575 -4.20562288 29.47647277 -4.22460938 26.17578125 C-4.22754482 24.07031364 -4.22952861 21.96484445 -4.23046875 19.859375 C-4.23765427 18.87684753 -4.24483978 17.89432007 -4.25224304 16.88201904 C-4.21035699 4.21035699 -4.21035699 4.21035699 0 0 Z " fill="#0A0404" transform="translate(399,69)"/>
<path d="M0 0 C11.35172469 9.95809777 14.19072466 27.80344018 16 42 C16 42.66 16 43.32 16 44 C15.01 44 14.02 44 13 44 C10.94637945 38.91059256 9.56820748 34.45479185 9 29 C8.67 29.99 8.34 30.98 8 32 C7.34 32 6.68 32 6 32 C6 30.02 6 28.04 6 26 C6.66 26 7.32 26 8 26 C8 25.34 8 24.68 8 24 C7.34 24 6.68 24 6 24 C6 21.36 6 18.72 6 16 C5.34 16 4.68 16 4 16 C2.23537317 12.91190305 2 11.76687864 2 8 C0.68 8 -0.64 8 -2 8 C-2.6875 5.6875 -2.6875 5.6875 -3 3 C-1.5625 1.1875 -1.5625 1.1875 0 0 Z " fill="#020815" transform="translate(318,228)"/>
<path d="M0 0 C1.65 0 3.3 0 5 0 C6.46232069 2.92464138 6.27914131 5.92038296 6.38671875 9.1328125 C6.41224319 9.8434787 6.43776764 10.5541449 6.46406555 11.28634644 C6.51611792 12.79432713 6.56553959 14.30240055 6.61254883 15.81054688 C6.68654887 18.0956297 6.7774569 20.3796303 6.86914062 22.6640625 C6.9177155 24.13277819 6.96527273 25.60152795 7.01171875 27.0703125 C7.04077805 27.74458282 7.06983734 28.41885315 7.09977722 29.11355591 C7.22941657 34.11443701 6.35862433 38.23535458 5 43 C4.01 42.67 3.02 42.34 2 42 C2 31.44 2 20.88 2 10 C1.34 10 0.68 10 0 10 C0 6.7 0 3.4 0 0 Z " fill="#000214" transform="translate(328,310)"/>
<path d="M0 0 C6.90520909 8.27513685 6.43645626 19.79157592 6.28125 30.04003906 C6.24951922 32.15707681 6.24020766 34.27337072 6.234375 36.390625 C6.16477607 46.67044786 6.16477607 46.67044786 5 49 C4.01 49 3.02 49 2 49 C1.505 31.675 1.505 31.675 1 14 C0.67 14 0.34 14 0 14 C-0.19456705 12.04235617 -0.38044247 10.08384679 -0.5625 8.125 C-0.66691406 7.03445312 -0.77132813 5.94390625 -0.87890625 4.8203125 C-1 2 -1 2 0 0 Z " fill="#030933" transform="translate(328,63)"/>
<path d="M0 0 C3.4339121 2.78639808 4.87572017 4.24011897 5.60127258 8.67634583 C5.61567227 10.11859355 5.60268085 11.56128026 5.56762695 13.00317383 C5.56835709 13.79394318 5.56908722 14.58471252 5.56983948 15.39944458 C5.56636721 18.00268115 5.5275257 20.60410889 5.48828125 23.20703125 C5.47895178 25.01591515 5.4718363 26.82481171 5.46684265 28.63371277 C5.44778331 33.38678072 5.39869187 38.13908053 5.34332275 42.8918457 C5.2921072 47.74484873 5.2693237 52.59797629 5.24414062 57.45117188 C5.19057195 66.96778477 5.10527214 76.48382842 5 86 C4.01 85.34 3.02 84.68 2 84 C1.34 85.32 0.68 86.64 0 88 C-0.66 88 -1.32 88 -2 88 C-1.6875 85.625 -1.6875 85.625 -1 83 C0.485 82.01 0.485 82.01 2 81 C3.06709042 77.79872874 3.15673203 75.42642377 3.20532227 72.05981445 C3.22526749 70.83877518 3.24521271 69.6177359 3.26576233 68.35969543 C3.29083107 66.38147041 3.29083107 66.38147041 3.31640625 64.36328125 C3.3369826 62.99992756 3.35797925 61.63658015 3.37937927 60.27323914 C3.4345297 56.68778578 3.48396987 53.10227552 3.53222656 49.51672363 C3.58249299 45.8568008 3.63815219 42.19696043 3.69335938 38.53710938 C3.80085494 31.35814279 3.9023189 24.17910755 4 17 C2.68 17 1.36 17 0 17 C-0.66 11.72 -1.32 6.44 -2 1 C-1.34 0.67 -0.68 0.34 0 0 Z " fill="#180602" transform="translate(475,267)"/>
<path d="M0 0 C0.66 0 1.32 0 2 0 C2 0.66 2 1.32 2 2 C2.99 2 3.98 2 5 2 C5.20638953 27.76376337 5.20638953 27.76376337 4 40 C3.01 40 2.02 40 1 40 C-0.14404987 35.90319435 -0.12609467 31.95946469 -0.09765625 27.734375 C-0.0962413 26.94097717 -0.09482635 26.14757935 -0.09336853 25.33013916 C-0.08778415 22.80338728 -0.07523454 20.27672496 -0.0625 17.75 C-0.05748298 16.03385545 -0.05292043 14.31770951 -0.04882812 12.6015625 C-0.03781984 8.40100731 -0.02056596 4.20051883 0 0 Z " fill="#0E0404" transform="translate(395,315)"/>
<path d="M0 0 C3.10318004 4.65477006 3.15986883 8.46482669 3.16796875 13.87890625 C3.17129715 14.64677963 3.17462555 15.41465302 3.17805481 16.20579529 C3.18311295 17.82721356 3.18546348 19.44864221 3.18530273 21.07006836 C3.18749484 23.55665049 3.20567723 26.0427929 3.22460938 28.52929688 C3.22754235 30.10416515 3.22952779 31.67903553 3.23046875 33.25390625 C3.23765427 33.99975479 3.24483978 34.74560333 3.25224304 35.51405334 C3.22883245 40.77116755 3.22883245 40.77116755 1 43 C-1.20484241 35.25254979 -1.27488486 27.74205038 -1.20581055 19.7590332 C-1.18733758 17.54301663 -1.18530284 15.32741436 -1.18554688 13.11132812 C-1.1479167 2.2958334 -1.1479167 2.2958334 0 0 Z " fill="#140803" transform="translate(217,314)"/>
<path d="M0 0 C0.66 0.33 1.32 0.66 2 1 C2 34.33 2 67.66 2 102 C1.01 102 0.02 102 -1 102 C-0.84152588 100.8850415 -0.68305176 99.77008301 -0.51977539 98.62133789 C0.34320548 90.80204113 0.23772031 82.9164614 0.31640625 75.05859375 C0.33700929 73.32267296 0.35800657 71.58675682 0.37937927 69.85084534 C0.43425431 65.30866277 0.48381425 60.76643756 0.53222656 56.22418213 C0.58269597 51.57845316 0.63824849 46.93278519 0.69335938 42.28710938 C0.80051733 33.19145851 0.90205419 24.09575441 1 15 C0.34 15 -0.32 15 -1 15 C-1.02685412 12.68756208 -1.04632841 10.3750373 -1.0625 8.0625 C-1.07410156 6.77472656 -1.08570313 5.48695313 -1.09765625 4.16015625 C-1 1 -1 1 0 0 Z " fill="#00203D" transform="translate(509,257)"/>
<path d="M0 0 C0.99 0 1.98 0 3 0 C3.02469492 6.21134144 3.04285758 12.42265438 3.05493164 18.6340332 C3.05996444 20.74764504 3.0667912 22.86125338 3.07543945 24.97485352 C3.08755104 28.01058818 3.09323881 31.04627686 3.09765625 34.08203125 C3.10281754 35.02899368 3.10797882 35.97595612 3.11329651 36.95161438 C3.11337204 37.83230087 3.11344757 38.71298737 3.11352539 39.62036133 C3.115746 40.39535477 3.11796661 41.17034821 3.12025452 41.96882629 C3 44 3 44 2 47 C1.34 47 0.68 47 0 47 C0 31.49 0 15.98 0 0 Z " fill="#012742" transform="translate(152,81)"/>
<path d="M0 0 C7.44939774 6.83125623 9.73882488 16.26824569 11 26 C8.69 25.67 6.38 25.34 4 25 C3.77213542 22.94921875 3.54427083 20.8984375 3.31640625 18.84765625 C3.18113386 16.98859771 3.18113386 16.98859771 2 16 C1.95907063 13.66702567 1.95758277 11.33294775 2 9 C1.34 9 0.68 9 0 9 C0 7.68 0 6.36 0 5 C-0.66 4.67 -1.32 4.34 -2 4 C-2 3.01 -2 2.02 -2 1 C-1.34 0.67 -0.68 0.34 0 0 Z " fill="#000713" transform="translate(144,55)"/>
<path d="M0 0 C0.99 0.33 1.98 0.66 3 1 C2.525625 1.845625 2.05125 2.69125 1.5625 3.5625 C-1.00754607 9.74026331 -0.76956926 16.40667031 -1 23 C-1.04366699 24.19592773 -1.08733398 25.39185547 -1.13232422 26.62402344 C-1.45082673 35.41513957 -1.73463493 44.20711572 -2 53 C-2.66 53 -3.32 53 -4 53 C-4 37.16 -4 21.32 -4 5 C-3.34 5 -2.68 5 -2 5 C-1.7834375 4.0409375 -1.7834375 4.0409375 -1.5625 3.0625 C-1 1 -1 1 0 0 Z " fill="#0C1F3C" transform="translate(254,75)"/>
<path d="M0 0 C0.66 0.33 1.32 0.66 2 1 C1.67 14.86 1.34 28.72 1 43 C-0.485 43.495 -0.485 43.495 -2 44 C-2 30.47 -2 16.94 -2 3 C-1.34 3 -0.68 3 0 3 C0 2.01 0 1.02 0 0 Z " fill="#08304D" transform="translate(431,82)"/>
<path d="M0 0 C9.49530707 10.17354329 8.49820906 22.13851489 8.25 35.125 C8.22990356 36.95831382 8.21165835 38.79164891 8.1953125 40.625 C8.15156736 45.08386523 8.08271439 49.54169438 8 54 C7.67 54 7.34 54 7 54 C6.97494385 53.05680908 6.9498877 52.11361816 6.92407227 51.1418457 C6.82870191 47.62871337 6.72948275 44.11573292 6.62768555 40.6027832 C6.58448452 39.08492245 6.54279952 37.56701774 6.50268555 36.04907227 C6.44462188 33.86200741 6.38103344 31.67516082 6.31640625 29.48828125 C6.27974854 28.17384033 6.24309082 26.85939941 6.20532227 25.50512695 C6.03239364 22.55300302 5.67839286 19.87049504 5 17 C3.68 16.67 2.36 16.34 1 16 C1 13.36 1 10.72 1 8 C0.34 8 -0.32 8 -1 8 C-1.625 5.6875 -1.625 5.6875 -2 3 C-1.34 2.01 -0.68 1.02 0 0 Z " fill="#021025" transform="translate(503,56)"/>
<path d="M0 0 C4.66154042 1.49835228 5.86610751 4.88463591 8 9 C8.99 8.67 9.98 8.34 11 8 C11.66 8.33 12.32 8.66 13 9 C13 10.32 13 11.64 13 13 C13.66 13 14.32 13 15 13 C14.33333333 16.33333333 13.66666667 19.66666667 13 23 C13.66 23 14.32 23 15 23 C15 24.65 15 26.3 15 28 C13.078125 27.30078125 13.078125 27.30078125 11 26 C10.234375 23.85546875 10.234375 23.85546875 9.75 21.1875 C8.24575937 14.7626078 5.23386835 10.09132123 1.64453125 4.65234375 C0 2 0 2 0 0 Z " fill="#130703" transform="translate(283,247)"/>
<path d="M0 0 C0.33 0.66 0.66 1.32 1 2 C0.67 2.66 0.34 3.32 0 4 C0.66 4 1.32 4 2 4 C2 4.66 2 5.32 2 6 C1.34 6 0.68 6 0 6 C0 7.32 0 8.64 0 10 C-1.98 10.99 -1.98 10.99 -4 12 C-4 12.99 -4 13.98 -4 15 C-3.34 14.67 -2.68 14.34 -2 14 C-1.82164485 18.54805635 -2.00214565 21.8794254 -4 26 C-5.32 26 -6.64 26 -8 26 C-9.76622879 16.80409139 -7.80564943 11.21001015 -2.8125 3.5 C-1 1 -1 1 0 0 Z M3 2 C3.33 2.66 3.66 3.32 4 4 C3.34 3.67 2.68 3.34 2 3 C2.33 2.67 2.66 2.34 3 2 Z " fill="#100301" transform="translate(48,54)"/>
<path d="M0 0 C0.33 0 0.66 0 1 0 C1.89663672 4.58556772 2.11633191 8.9170222 2.09765625 13.5859375 C2.0962413 14.28772125 2.09482635 14.989505 2.09336853 15.71255493 C2.0878129 17.93341504 2.07526892 20.15417084 2.0625 22.375 C2.05747926 23.88932145 2.05291736 25.4036445 2.04882812 26.91796875 C2.03785807 30.61201252 2.02062449 34.30599606 2 38 C1.01 38 0.02 38 -1 38 C-1.02464928 32.74894558 -1.04283568 27.49792455 -1.05493164 22.24682617 C-1.05997218 20.45905979 -1.06680454 18.67129755 -1.07543945 16.88354492 C-1.0875173 14.31948832 -1.09323094 11.75548603 -1.09765625 9.19140625 C-1.10281754 8.3872377 -1.10797882 7.58306915 -1.11329651 6.75453186 C-1.11349215 4.83598285 -1.06201983 2.91754632 -1 1 C-0.67 0.67 -0.34 0.34 0 0 Z " fill="#00284B" transform="translate(153,310)"/>
<path d="M0 0 C0.99 0 1.98 0 3 0 C2.02815274 8.51204152 -0.49615765 15.68125619 -5 23 C-5.66 23.33 -6.32 23.66 -7 24 C-7 23.34 -7 22.68 -7 22 C-7.66 22 -8.32 22 -9 22 C-9 21.34 -9 20.68 -9 20 C-8.01 20 -7.02 20 -6 20 C-6.185625 19.05125 -6.37125 18.1025 -6.5625 17.125 C-7 14 -7 14 -6 12 C-5.34 12 -4.68 12 -4 12 C-4 9.36 -4 6.72 -4 4 C-2.68 4 -1.36 4 0 4 C0 2.68 0 1.36 0 0 Z " fill="#01071A" transform="translate(152,348)"/>
<path d="M0 0 C1.65 0.33 3.3 0.66 5 1 C3.47959884 10.27444709 -0.01721058 18.51598125 -7 25 C-7.33 22.03 -7.66 19.06 -8 16 C-7.34 16 -6.68 16 -6 16 C-5.67 14.68 -5.34 13.36 -5 12 C-4.67 12.66 -4.34 13.32 -4 14 C-3.34 14 -2.68 14 -2 14 C-0.27071163 7.08840962 -0.27071163 7.08840962 0 0 Z " fill="#050C19" transform="translate(328,352)"/>
<path d="M0 0 C0.66 0 1.32 0 2 0 C2 11.22 2 22.44 2 34 C0.515 34.495 0.515 34.495 -1 35 C-1.02480683 30.81909587 -1.04291049 26.63823128 -1.05493164 22.45727539 C-1.05994565 21.03636936 -1.06675852 19.61546844 -1.07543945 18.19458008 C-1.08763388 16.14663424 -1.09325772 14.0987569 -1.09765625 12.05078125 C-1.10289307 10.82012939 -1.10812988 9.58947754 -1.11352539 8.3215332 C-1.01393817 5.40780381 -0.67799322 2.82692674 0 0 Z " fill="#492D02" transform="translate(298,310)"/>
<path d="M0 0 C0.33 0 0.66 0 1 0 C0.67 15.18 0.34 30.36 0 46 C-0.99 46.495 -0.99 46.495 -2 47 C-2.0505963 40.62796407 -2.08568957 34.2559797 -2.10986328 27.88378906 C-2.11993789 25.71482406 -2.13359798 23.54587269 -2.15087891 21.37695312 C-2.17506323 18.26428874 -2.18646832 15.15180349 -2.1953125 12.0390625 C-2.20563507 11.065065 -2.21595764 10.0910675 -2.22659302 9.08755493 C-2.22674408 8.18677216 -2.22689514 7.28598938 -2.22705078 6.35791016 C-2.231492 5.56293121 -2.23593323 4.76795227 -2.24050903 3.94888306 C-2 2 -2 2 0 0 Z " fill="#1E0B01" transform="translate(219,75)"/>
<path d="M0 0 C0.66 0 1.32 0 2 0 C4.32814269 6.29884005 5.7447694 12.42217356 6.6875 19.0625 C6.88182617 20.3609082 6.88182617 20.3609082 7.08007812 21.68554688 C7.39389856 23.78930608 7.69799214 25.89451257 8 28 C7.01 28 6.02 28 5 28 C2.54593519 22.3449811 1.57092234 17.47433907 1.2109375 11.3203125 C1.13991838 8.97617064 1.13991838 8.97617064 0 7 C-0.04022391 4.6670134 -0.04320247 2.33293334 0 0 Z " fill="#010A22" transform="translate(326,244)"/>
<path d="M0 0 C0.99 0.33 1.98 0.66 3 1 C3.33 10.9 3.66 20.8 4 31 C3.01 30.67 2.02 30.34 1 30 C-0.31604502 26.7502034 -0.11463327 23.38518628 -0.09765625 19.921875 C-0.09443359 18.76171875 -0.09121094 17.6015625 -0.08789062 16.40625 C-0.07951172 15.1996875 -0.07113281 13.993125 -0.0625 12.75 C-0.05798828 11.52796875 -0.05347656 10.3059375 -0.04882812 9.046875 C-0.03704815 6.03120054 -0.02059853 3.01562502 0 0 Z " fill="#0B203D" transform="translate(250,320)"/>
<path d="M0 0 C3.63156373 3.63156373 5.60631044 6.64491991 7.6875 11.1875 C7.9956665 11.85080322 8.30383301 12.51410645 8.62133789 13.19750977 C10.84178284 18.17729553 11.90363532 22.50721309 12 28 C11.01 28 10.02 28 9 28 C6.87953208 24.46588679 6.46800711 21.05606165 6 17 C5.67 17 5.34 17 5 17 C5 15.35 5 13.7 5 12 C4.34 12 3.68 12 3 12 C2.01 8.04 1.02 4.08 0 0 Z " fill="#00051C" transform="translate(497,228)"/>
<path d="M0 0 C0.66 0 1.32 0 2 0 C3.05836661 3.17509982 3.20243789 5.64282383 3.31640625 8.98046875 C3.35830078 10.14384766 3.40019531 11.30722656 3.44335938 12.50585938 C3.48267578 13.72080078 3.52199219 14.93574219 3.5625 16.1875 C3.60568359 17.41404297 3.64886719 18.64058594 3.69335938 19.90429688 C3.7995309 22.93608381 3.90157952 25.96795315 4 29 C3.01 29.33 2.02 29.66 1 30 C0.67 30.66 0.34 31.32 0 32 C0 21.44 0 10.88 0 0 Z " fill="#0F2161" transform="translate(331,316)"/>
<path d="M0 0 C0.66 0 1.32 0 2 0 C3.40912096 2.81824192 3.11183553 5.17251282 3.09765625 8.3203125 C3.09443359 9.57714844 3.09121094 10.83398438 3.08789062 12.12890625 C3.07951172 13.44761719 3.07113281 14.76632813 3.0625 16.125 C3.05748489 17.46484211 3.05292201 18.804686 3.04882812 20.14453125 C3.03701086 23.42973206 3.02053617 26.71484397 3 30 C2.01 30.33 1.02 30.66 0 31 C0 20.77 0 10.54 0 0 Z " fill="#4E3102" transform="translate(297,82)"/>
<path d="M0 0 C0.66 0 1.32 0 2 0 C2.33 10.56 2.66 21.12 3 32 C2.34 32 1.68 32 1 32 C1 31.01 1 30.02 1 29 C0.34 29 -0.32 29 -1 29 C-1.02891546 24.54168018 -1.04676981 20.08338431 -1.0625 15.625 C-1.07087891 14.35398437 -1.07925781 13.08296875 -1.08789062 11.7734375 C-1.09111328 10.56171875 -1.09433594 9.35 -1.09765625 8.1015625 C-1.10289307 6.98088379 -1.10812988 5.86020508 -1.11352539 4.70556641 C-1 2 -1 2 0 0 Z " fill="#073447" transform="translate(430,315)"/>
<path d="M0 0 C0.99 0.33 1.98 0.66 3 1 C3.02891949 5.29165262 3.04677118 9.58328036 3.0625 13.875 C3.07087891 15.09832031 3.07925781 16.32164063 3.08789062 17.58203125 C3.09111328 18.74863281 3.09433594 19.91523437 3.09765625 21.1171875 C3.10289307 22.19597168 3.10812988 23.27475586 3.11352539 24.38623047 C3 27 3 27 2 29 C1.34 29 0.68 29 0 29 C0 19.43 0 9.86 0 0 Z " fill="#0D2260" transform="translate(331,83)"/>
<path d="M0 0 C0.66 1.32 1.32 2.64 2 4 C2.66 4.33 3.32 4.66 4 5 C4.33 4.34 4.66 3.68 5 3 C5.556875 4.051875 6.11375 5.10375 6.6875 6.1875 C8.7017636 9.73953473 10.9990584 12.24913686 14 15 C13.01 16.32 12.02 17.64 11 19 C8 18 8 18 6 15 C5.875 12.3125 5.875 12.3125 6 10 C4.02 10 2.04 10 0 10 C0 6.7 0 3.4 0 0 Z " fill="#020713" transform="translate(250,346)"/>
<path d="M0 0 C2 2 2 2 2.22705078 5.16455078 C2.22673389 6.50817963 2.21542181 7.8518341 2.1953125 9.1953125 C2.1924826 9.90275604 2.18965271 10.61019958 2.18673706 11.33908081 C2.17553137 13.6012251 2.15042679 15.86297515 2.125 18.125 C2.11497067 19.65754637 2.10584474 21.19009894 2.09765625 22.72265625 C2.07559086 26.48192301 2.04105896 30.24089464 2 34 C1.67 34 1.34 34 1 34 C0.505 36.475 0.505 36.475 0 39 C-0.33 39 -0.66 39 -1 39 C-1.02464849 33.60653012 -1.04283531 28.21309275 -1.05493164 22.81958008 C-1.05997231 20.98331125 -1.06680477 19.14704646 -1.07543945 17.31079102 C-1.08751672 14.67723599 -1.09323081 12.04373384 -1.09765625 9.41015625 C-1.10281754 8.58411392 -1.10797882 7.75807159 -1.11329651 6.90699768 C-1.11349205 4.93763632 -1.06204152 2.96838386 -1 1 C-0.67 0.67 -0.34 0.34 0 0 Z " fill="#3E230D" transform="translate(396,77)"/>
<path d="M0 0 C0.66 0 1.32 0 2 0 C2.33 2.64 2.66 5.28 3 8 C4.32 8 5.64 8 7 8 C7.05416188 9.60379341 7.09286638 11.20811406 7.125 12.8125 C7.14820313 13.70582031 7.17140625 14.59914063 7.1953125 15.51953125 C7 18 7 18 5 21 C1.20021997 13.91859176 -0.27884704 7.94714074 0 0 Z " fill="#160701" transform="translate(37,344)"/>
<path d="M0 0 C0.99 0.495 0.99 0.495 2 1 C2.33 12.22 2.66 23.44 3 35 C2.01 35 1.02 35 0 35 C0 23.45 0 11.9 0 0 Z " fill="#00030F" transform="translate(508,77)"/>
<path d="M0 0 C0.66 0 1.32 0 2 0 C1.67 1.65 1.34 3.3 1 5 C1.66 5 2.32 5 3 5 C3.02684312 7.81256281 3.04676188 10.62487241 3.0625 13.4375 C3.07087891 14.23994141 3.07925781 15.04238281 3.08789062 15.86914062 C3.0965143 17.91295221 3.0522815 19.95683902 3 22 C2.67 22.33 2.34 22.66 2 23 C1.76807135 24.51469448 1.58784762 26.03754562 1.4375 27.5625 C1.35371094 28.38878906 1.26992188 29.21507812 1.18359375 30.06640625 C1.12300781 30.70449219 1.06242187 31.34257812 1 32 C0.67 32 0.34 32 0 32 C0 21.44 0 10.88 0 0 Z " fill="#3D220D" transform="translate(395,315)"/>
<path d="M0 0 C0.33 1.32 0.66 2.64 1 4 C0.34 4 -0.32 4 -1 4 C-2.07525194 6.65228812 -3.09456151 9.28368454 -4 12 C-7.0625 13.1875 -7.0625 13.1875 -10 14 C-10.671875 12.2578125 -10.671875 12.2578125 -11 10 C-9.890625 7.9296875 -9.890625 7.9296875 -8.25 5.875 C-7.71890625 5.19179688 -7.1878125 4.50859375 -6.640625 3.8046875 C-4.64129271 1.60542198 -3.09033322 0 0 0 Z " fill="#150605" transform="translate(411,52)"/>
<path d="M0 0 C1.32 0.33 2.64 0.66 4 1 C4 16.51 4 32.02 4 48 C3.67 48 3.34 48 3 48 C2.96241577 46.53361084 2.96241577 46.53361084 2.92407227 45.03759766 C2.82898346 41.3659439 2.72902248 37.69443539 2.62768555 34.02294922 C2.58471615 32.44225493 2.54301955 30.86152545 2.50268555 29.28076172 C2.39658277 14.50531711 2.39658277 14.50531711 0 0 Z " fill="#4A140B" transform="translate(117,82)"/>
<path d="M0 0 C0.33 0 0.66 0 1 0 C1.6492751 13.67449331 2.16741675 27.30903057 2 41 C1.34 41 0.68 41 0 41 C-1.30286938 37.09139187 -1.01353276 33.45657086 -0.87890625 29.39453125 C-0.85529526 28.55532639 -0.83168427 27.71612152 -0.80735779 26.85148621 C-0.73079724 24.1716488 -0.64674019 21.49210593 -0.5625 18.8125 C-0.50927169 16.99545711 -0.45653134 15.17839986 -0.40429688 13.36132812 C-0.27519238 8.90736565 -0.13936429 4.45365278 0 0 Z " fill="#310F00" transform="translate(396,87)"/>
<path d="M0 0 C3 1 3 1 4 3 C4.08527628 5.03232634 4.10716135 7.06747006 4.09765625 9.1015625 C4.09282227 10.91914062 4.09282227 10.91914062 4.08789062 12.7734375 C4.07951172 14.04445313 4.07113281 15.31546875 4.0625 16.625 C4.05798828 17.90375 4.05347656 19.1825 4.04882812 20.5 C4.03701203 23.66671292 4.02053815 26.83333356 4 30 C3.34 30 2.68 30 2 30 C1.97494385 29.26885986 1.9498877 28.53771973 1.92407227 27.78442383 C1.80777359 24.46028583 1.68520072 21.13640759 1.5625 17.8125 C1.52318359 16.66201172 1.48386719 15.51152344 1.44335938 14.32617188 C1.40146484 13.21435547 1.35957031 12.10253906 1.31640625 10.95703125 C1.27974854 9.93585205 1.24309082 8.91467285 1.20532227 7.86254883 C1.01159937 5.16171537 0.59548047 2.63833872 0 0 Z " fill="#270D02" transform="translate(475,79)"/>
<path d="M0 0 C0.33 0.99 0.66 1.98 1 3 C0.34 3 -0.32 3 -1 3 C-1 3.99 -1 4.98 -1 6 C-1.66 6 -2.32 6 -3 6 C-2.67 20.19 -2.34 34.38 -2 49 C-2.66 49 -3.32 49 -4 49 C-4 33.16 -4 17.32 -4 1 C-2.68 0.67 -1.36 0.34 0 0 Z " fill="#01072C" transform="translate(432,79)"/>
<path d="M0 0 C2.3125 1.5625 2.3125 1.5625 3.125 4.6875 C3.186875 5.63625 3.24875 6.585 3.3125 7.5625 C1.25 8.4375 1.25 8.4375 -1.6875 8.5625 C-4.33538687 6.88295192 -6.6177727 4.91852963 -8.6875 2.5625 C-8.6875 1.9025 -8.6875 1.2425 -8.6875 0.5625 C-8.0275 0.5625 -7.3675 0.5625 -6.6875 0.5625 C-6.6875 1.2225 -6.6875 1.8825 -6.6875 2.5625 C-6.130625 2.02625 -5.57375 1.49 -5 0.9375 C-2.6875 -0.4375 -2.6875 -0.4375 0 0 Z " fill="#0C0708" transform="translate(61.6875,379.4375)"/>
<path d="M0 0 C-0.66 5.61 -1.32 11.22 -2 17 C-2.99 17 -3.98 17 -5 17 C-5 11.72 -5 6.44 -5 1 C-2 0 -2 0 0 0 Z " fill="#050B2A" transform="translate(75,79)"/>
<path d="M0 0 C0.99 0 1.98 0 3 0 C3 2.64 3 5.28 3 8 C2.01 8 1.02 8 0 8 C0 9.98 0 11.96 0 14 C-0.66 13.34 -1.32 12.68 -2 12 C-2.99 12.495 -2.99 12.495 -4 13 C-3.50269348 8.02693484 -2.44697666 4.36200187 0 0 Z " fill="#110401" transform="translate(221,64)"/>
<path d="M0 0 C0.99 0.33 1.98 0.66 3 1 C3 12.22 3 23.44 3 35 C2.34 34.67 1.68 34.34 1 34 C1.00523682 33.19256348 1.01047363 32.38512695 1.01586914 31.55322266 C1.03659929 27.91048962 1.04964749 24.26776898 1.0625 20.625 C1.07087891 19.35398437 1.07925781 18.08296875 1.08789062 16.7734375 C1.09111328 15.56171875 1.09433594 14.35 1.09765625 13.1015625 C1.10289307 11.98088379 1.10812988 10.86020508 1.11352539 9.70556641 C1.18621466 7.03132657 1.18621466 7.03132657 0 5 C-0.99 4.67 -1.98 4.34 -3 4 C-3 3.34 -3 2.68 -3 2 C-2.01 1.34 -1.02 0.68 0 0 Z " fill="#150401" transform="translate(477,75)"/>
<path d="M0 0 C0.66 0 1.32 0 2 0 C2 0.66 2 1.32 2 2 C2.5775 2.268125 3.155 2.53625 3.75 2.8125 C6.05550043 4.02929189 8.02056192 5.30333879 10 7 C10 7.66 10 8.32 10 9 C10.66 9 11.32 9 12 9 C12.33 10.32 12.66 11.64 13 13 C14.32 13 15.64 13 17 13 C17.66 14.32 18.32 15.64 19 17 C13.76515214 16.09463829 10.75077564 12.52809508 7 9 C6.31550781 8.35675781 5.63101563 7.71351563 4.92578125 7.05078125 C1.31376619 3.55599183 1.31376619 3.55599183 0 2 C0 1.34 0 0.68 0 0 Z " fill="#100906" transform="translate(227,374)"/>
<path d="M0 0 C0.99 0 1.98 0 3 0 C3 0.99 3 1.98 3 3 C3.66 3 4.32 3 5 3 C8 8.625 8 8.625 8 12 C6.68 12.33 5.36 12.66 4 13 C4 11.35 4 9.7 4 8 C2.68 8 1.36 8 0 8 C0 5.36 0 2.72 0 0 Z " fill="#010717" transform="translate(428,344)"/>
<path d="M0 0 C0.33 0 0.66 0 1 0 C1 13.2 1 26.4 1 40 C0.01 40 -0.98 40 -2 40 C-1.84660156 38.84628906 -1.69320313 37.69257813 -1.53515625 36.50390625 C-0.73922991 29.34056915 -0.63881896 22.1365016 -0.4375 14.9375 C-0.39421245 13.4850161 -0.35059526 12.03254199 -0.30664062 10.58007812 C-0.20062746 7.05349009 -0.09907252 3.52679065 0 0 Z " fill="#01233E" transform="translate(510,319)"/>
<path d="M0 0 C0.33 0 0.66 0 1 0 C1 13.53 1 27.06 1 41 C-0.485 41.495 -0.485 41.495 -2 42 C-1.84152588 41.35200439 -1.68305176 40.70400879 -1.51977539 40.03637695 C-0.85729303 36.16634731 -0.76710874 32.33335999 -0.68359375 28.41796875 C-0.66281265 27.60378983 -0.64203156 26.7896109 -0.62062073 25.95075989 C-0.55550537 23.36308821 -0.49641792 20.77531947 -0.4375 18.1875 C-0.39427858 16.42772455 -0.35066315 14.66795872 -0.30664062 12.90820312 C-0.1998632 8.60556691 -0.09848982 4.30283357 0 0 Z " fill="#120300" transform="translate(219,84)"/>
<path d="M0 0 C0.33 0.66 0.66 1.32 1 2 C0.67 2.66 0.34 3.32 0 4 C0.66 4 1.32 4 2 4 C2 4.66 2 5.32 2 6 C1.34 6 0.68 6 0 6 C0 7.32 0 8.64 0 10 C-1.98 10.99 -3.96 11.98 -6 13 C-6.35281338 8.8029908 -5.64185432 6.93477927 -3 3.6875 C-2.443125 2.99011719 -1.88625 2.29273438 -1.3125 1.57421875 C-0.6628125 0.79498047 -0.6628125 0.79498047 0 0 Z M3 2 C3.33 2.66 3.66 3.32 4 4 C3.34 3.67 2.68 3.34 2 3 C2.33 2.67 2.66 2.34 3 2 Z " fill="#1E0E0D" transform="translate(48,54)"/>
<path d="M0 0 C0.33 0 0.66 0 1 0 C1.84062776 4.36893737 2.11732956 8.4835198 2.09765625 12.9296875 C2.09282227 14.86328125 2.09282227 14.86328125 2.08789062 16.8359375 C2.07953733 18.18229236 2.07107241 19.52864652 2.0625 20.875 C2.0574783 22.24479004 2.05291657 23.61458185 2.04882812 24.984375 C2.03707254 28.3229619 2.02063964 31.66145815 2 35 C1.67 35 1.34 35 1 35 C1 26.75 1 18.5 1 10 C0.34 10 -0.32 10 -1 10 C-1.02689216 8.52093108 -1.04634621 7.04172517 -1.0625 5.5625 C-1.07410156 4.73878906 -1.08570313 3.91507812 -1.09765625 3.06640625 C-1 1 -1 1 0 0 Z " fill="#002C2C" transform="translate(153,310)"/>
<path d="M0 0 C0.33 0 0.66 0 1 0 C1.33 8.58 1.66 17.16 2 26 C2.66 26 3.32 26 4 26 C3.67 28.31 3.34 30.62 3 33 C2.01 32.67 1.02 32.34 0 32 C0 21.44 0 10.88 0 0 Z " fill="#030740" transform="translate(330,320)"/>
<path d="M0 0 C0.33 0.99 0.66 1.98 1 3 C2.65 2.67 4.3 2.34 6 2 C6.33 2.99 6.66 3.98 7 5 C8.49985609 6.66710346 8.49985609 6.66710346 10 8 C9.67 8.99 9.34 9.98 9 11 C9 11.66 9 12.32 9 13 C5.5974932 11.86583107 4.91553838 10.98635849 2.8125 8.1875 C2.28269531 7.50042969 1.75289062 6.81335938 1.20703125 6.10546875 C0 4 0 4 0 0 Z " fill="#170A08" transform="translate(230,196)"/>
<path d="M0 0 C1.98 0 3.96 0 6 0 C6 0.66 6 1.32 6 2 C5.01 2.66 4.02 3.32 3 4 C2.64587656 5.32796291 2.31478446 6.66216607 2 8 C0.5625 10.25 0.5625 10.25 -1 12 C-1.66 12 -2.32 12 -3 12 C-2.14285714 3.42857143 -2.14285714 3.42857143 0 0 Z " fill="#020711" transform="translate(79,64)"/>
<path d="M0 0 C0.33 0 0.66 0 1 0 C1.08732726 3.89569135 1.14050185 7.79112982 1.1875 11.6875 C1.22520508 13.34168945 1.22520508 13.34168945 1.26367188 15.02929688 C1.27333984 16.09599609 1.28300781 17.16269531 1.29296875 18.26171875 C1.3086792 19.24100342 1.32438965 20.22028809 1.34057617 21.22924805 C0.94372596 24.45781652 -0.16483275 26.34779173 -2 29 C-2.5625 27.0625 -2.5625 27.0625 -3 25 C-2.67 24.67 -2.34 24.34 -2 24 C-1.77210574 22.22309891 -1.60510212 20.43830032 -1.46484375 18.65234375 C-1.37783203 17.57275391 -1.29082031 16.49316406 -1.20117188 15.38085938 C-1.11416016 14.24455078 -1.02714844 13.10824219 -0.9375 11.9375 C-0.84662109 10.79732422 -0.75574219 9.65714844 -0.66210938 8.48242188 C-0.43735454 5.65524259 -0.21684289 2.82779536 0 0 Z " fill="#3A1B05" transform="translate(478,321)"/>
<path d="M0 0 C0.66 0.33 1.32 0.66 2 1 C2 5.95 2 10.9 2 16 C1.01 15.67 0.02 15.34 -1 15 C-1.02685412 12.68756208 -1.04632841 10.3750373 -1.0625 8.0625 C-1.07410156 6.77472656 -1.08570313 5.48695313 -1.09765625 4.16015625 C-1 1 -1 1 0 0 Z " fill="#050C27" transform="translate(509,257)"/>
<path d="M0 0 C6 7.2 6 7.2 6 12 C3 12 3 12 0.875 10.3125 C-1.20769606 7.74384152 -1.83155475 6.28468231 -2 3 C-1.34 2.01 -0.68 1.02 0 0 Z " fill="#121929" transform="translate(503,56)"/>
<path d="M0 0 C0.33 0 0.66 0 1 0 C1.33 5.94 1.66 11.88 2 18 C1.01 18 0.02 18 -1 18 C-1.9563948 12.1553651 -2.15066164 6.84280412 -1 1 C-0.67 0.67 -0.34 0.34 0 0 Z " fill="#341000" transform="translate(397,337)"/>
<path d="M0 0 C0.99 0.33 1.98 0.66 3 1 C3.33 2.98 3.66 4.96 4 7 C4.66 7 5.32 7 6 7 C6.66 8.98 7.32 10.96 8 13 C6.02 13.99 6.02 13.99 4 15 C4 13.68 4 12.36 4 11 C3.34 11 2.68 11 2 11 C2 8.36 2 5.72 2 3 C1.34 3 0.68 3 0 3 C0 2.01 0 1.02 0 0 Z " fill="#01050E" transform="translate(496,233)"/>
<path d="M0 0 C3.23882699 3.23882699 4.8429435 5.09658894 6.8125 9 C7.25207031 9.845625 7.69164062 10.69125 8.14453125 11.5625 C9.08441302 14.2405193 8.9861483 15.3864045 8 18 C7.67 17.01 7.34 16.02 7 15 C6.34 14.67 5.68 14.34 5 14 C5 13.34 5 12.68 5 12 C4.34 12 3.68 12 3 12 C2.01 8.04 1.02 4.08 0 0 Z " fill="#151929" transform="translate(497,228)"/>
<path d="M0 0 C1.98 0 3.96 0 6 0 C4.62845496 2.95409701 3.01136276 5.44008376 1 8 C-0.9375 7.6875 -0.9375 7.6875 -3 7 C-3.33 6.01 -3.66 5.02 -4 4 C-3.01 3.67 -2.02 3.34 -1 3 C-0.67 2.01 -0.34 1.02 0 0 Z " fill="#080D1A" transform="translate(496,374)"/>
<path d="M0 0 C1.32 0 2.64 0 4 0 C7 10.4 7 10.4 7 13 C6.34 13 5.68 13 5 13 C4.15930585 11.39967863 3.32768495 9.79458829 2.5 8.1875 C1.80390625 6.84751953 1.80390625 6.84751953 1.09375 5.48046875 C0 3 0 3 0 0 Z " fill="#240C0A" transform="translate(220,360)"/>
<path d="M0 0 C0.99 0 1.98 0 3 0 C3.05391993 1.79133978 3.09275571 3.58313899 3.125 5.375 C3.14820313 6.37273437 3.17140625 7.37046875 3.1953125 8.3984375 C3 11 3 11 1 13 C-0.2834998 8.9088444 -1.38021934 5.3091525 -1 1 C-0.67 0.67 -0.34 0.34 0 0 Z " fill="#220E06" transform="translate(397,160)"/>
<path d="M0 0 C-0.1875 2.3125 -0.1875 2.3125 -1 5 C-3.4375 6.875 -3.4375 6.875 -6 8 C-6.66 7.67 -7.32 7.34 -8 7 C-6.4365884 2.43002763 -5.27390657 0 0 0 Z " fill="#040611" transform="translate(320,376)"/>
<path d="M0 0 C3.10551666 3.10551666 3.81323934 4.89198233 5 9 C4.34 9 3.68 9 3 9 C3 9.66 3 10.32 3 11 C2.34 11 1.68 11 1 11 C1 10.34 1 9.68 1 9 C0.34 9 -0.32 9 -1 9 C-0.67 6.03 -0.34 3.06 0 0 Z " fill="#0D1024" transform="translate(437,167)"/>
<path d="M0 0 C1.32 0 2.64 0 4 0 C3.67 6.93 3.34 13.86 3 21 C2.67 21 2.34 21 2 21 C2 15.72 2 10.44 2 5 C0.68 4.67 -0.64 4.34 -2 4 C-1.34 2.68 -0.68 1.36 0 0 Z " fill="#00061C" transform="translate(426,315)"/>
<path d="M0 0 C3.28431453 3.28431453 3.5143852 4.28636475 4.1875 8.6875 C4.42533203 10.17830078 4.42533203 10.17830078 4.66796875 11.69921875 C4.77753906 12.45847656 4.88710937 13.21773437 5 14 C3.35 13.67 1.7 13.34 0 13 C0 8.71 0 4.42 0 0 Z " fill="#0C1927" transform="translate(150,67)"/>
<path d="M0 0 C2.475 0.495 2.475 0.495 5 1 C4.34 3.97 3.68 6.94 3 10 C2.34 10 1.68 10 1 10 C0.22157062 6.59437148 -0.09978121 3.49234244 0 0 Z " fill="#0A1321" transform="translate(328,352)"/>
<path d="M0 0 C0.99 0 1.98 0 3 0 C2.34 3.63 1.68 7.26 1 11 C0.01 10.67 -0.98 10.34 -2 10 C-2 8.02 -2 6.04 -2 4 C-1.34 4 -0.68 4 0 4 C0 2.68 0 1.36 0 0 Z " fill="#0D182F" transform="translate(152,348)"/>
<path d="M0 0 C0.33 0 0.66 0 1 0 C1.33 4.95 1.66 9.9 2 15 C1.01 14.67 0.02 14.34 -1 14 C-1.22331199 12.41870971 -1.42804644 10.83478911 -1.625 9.25 C-1.74101562 8.36828125 -1.85703125 7.4865625 -1.9765625 6.578125 C-2.00207817 3.77140122 -1.44843844 2.36615134 0 0 Z " fill="#0E1526" transform="translate(252,336)"/>
<path d="M0 0 C2.64752004 2.57784846 4.94432065 4.91648098 7 8 C4.69 8.33 2.38 8.66 0 9 C-0.33 7.35 -0.66 5.7 -1 4 C-0.34 4 0.32 4 1 4 C0.67 2.68 0.34 1.36 0 0 Z " fill="#0B101C" transform="translate(444,179)"/>
<path d="M0 0 C0.66 0 1.32 0 2 0 C2 0.66 2 1.32 2 2 C2.66 2 3.32 2 4 2 C4 3.98 4 5.96 4 8 C4.66 8 5.32 8 6 8 C6 8.66 6 9.32 6 10 C4.68 10.33 3.36 10.66 2 11 C0.80712589 7.12315913 0 4.08378077 0 0 Z " fill="#1F130A" transform="translate(220,174)"/>
<path d="M0 0 C2.78637633 4.1795645 1.79562512 6.14668677 1 11 C0.01 10.67 -0.98 10.34 -2 10 C-2.6875 7.25 -2.6875 7.25 -3 4 C-1.5625 1.625 -1.5625 1.625 0 0 Z " fill="#180600" transform="translate(399,69)"/>
<path d="M0 0 C0.33 0 0.66 0 1 0 C1.33 6.27 1.66 12.54 2 19 C1.01 19.33 0.02 19.66 -1 20 C-1.33 20.66 -1.66 21.32 -2 22 C-2.04254356 20.00045254 -2.04080783 17.99958364 -2 16 C-1.67 15.67 -1.34 15.34 -1 15 C-0.76346477 12.47403741 -0.57826308 9.96892793 -0.4375 7.4375 C-0.39431641 6.72658203 -0.35113281 6.01566406 -0.30664062 5.28320312 C-0.20028223 3.52238088 -0.09961154 1.7612168 0 0 Z " fill="#1D306A" transform="translate(333,326)"/>
<path d="M0 0 C0.99 0 1.98 0 3 0 C3.33 1.32 3.66 2.64 4 4 C2.56570999 4.67354499 1.12742943 5.33859701 -0.3125 6 C-1.51326172 6.556875 -1.51326172 6.556875 -2.73828125 7.125 C-5 8 -5 8 -8 8 C-8 7.34 -8 6.68 -8 6 C-5.36 4.68 -2.72 3.36 0 2 C0 1.34 0 0.68 0 0 Z " fill="#0C0F11" transform="translate(300,389)"/>
<path d="M0 0 C0.33 0.66 0.66 1.32 1 2 C1.66 2 2.32 2 3 2 C5.12508244 5.18762365 5.5020163 7.26512223 6 11 C4.125 10.875 4.125 10.875 2 10 C0.40155515 6.40349908 0 3.96602757 0 0 Z " fill="#210F0B" transform="translate(399,175)"/>
<path d="M0 0 C2 1 2 1 3 3 C2.34 3 1.68 3 1 3 C0.34 4.65 -0.32 6.3 -1 8 C-1.66 7.67 -2.32 7.34 -3 7 C-5.11683841 7.89163577 -5.11683841 7.89163577 -7 9 C-5.44499019 5.18315774 -2.96404505 2.80804268 0 0 Z " fill="#130C0A" transform="translate(236,44)"/>
<path d="M0 0 C3.14958831 3.42346555 3.56179109 6.44262737 4 11 C3.01 11 2.02 11 1 11 C0.63743142 9.5437328 0.28520207 8.08488815 -0.0625 6.625 C-0.35833984 5.40683594 -0.35833984 5.40683594 -0.66015625 4.1640625 C-1 2 -1 2 0 0 Z " fill="#1F2947" transform="translate(328,63)"/>
<path d="M0 0 C2 3 2 3 1.7578125 5.69921875 C1.44457031 7.17841797 1.44457031 7.17841797 1.125 8.6875 C0.81949219 10.17830078 0.81949219 10.17830078 0.5078125 11.69921875 C0.34023438 12.45847656 0.17265625 13.21773437 0 14 C-0.66 13.67 -1.32 13.34 -2 13 C-2.16682272 8.07872966 -2.24828052 4.49656104 0 0 Z " fill="#230F07" transform="translate(39,73)"/>
<path d="M0 0 C0.66 0 1.32 0 2 0 C2.99 3.3 3.98 6.6 5 10 C3.68 9.67 2.36 9.34 1 9 C-0.4783226 6.04335481 -0.06032783 3.25770263 0 0 Z " fill="#17203A" transform="translate(326,244)"/>
<path d="M0 0 C1.41928261 2.64932753 2.31863453 5.07986225 3 8 C3.33 8.66 3.66 9.32 4 10 C3.01 10.33 2.02 10.66 1 11 C-0.625 8.875 -0.625 8.875 -2 6 C-1.1875 2.6875 -1.1875 2.6875 0 0 Z " fill="#120603" transform="translate(399,352)"/>
<path d="M0 0 C0.66 0 1.32 0 2 0 C3.1577506 3.47325181 3.06866652 6.36067448 3 10 C2.01 10.495 2.01 10.495 1 11 C-0.20272819 8.59454362 -0.10071472 7.05003047 -0.0625 4.375 C-0.05347656 3.55773437 -0.04445313 2.74046875 -0.03515625 1.8984375 C-0.02355469 1.27195312 -0.01195312 0.64546875 0 0 Z " fill="#0A1D51" transform="translate(331,316)"/>
<path d="M0 0 C0.99 0.33 1.98 0.66 3 1 C3 1.99 3 2.98 3 4 C3.66 4 4.32 4 5 4 C5 5.65 5 7.3 5 9 C3.0625 8.4375 3.0625 8.4375 1 7 C0.25 3.375 0.25 3.375 0 0 Z " fill="#1E0E07" transform="translate(293,266)"/>
<path d="M0 0 C-0.33 0.99 -0.66 1.98 -1 3 C-3.94885691 3 -6.3685612 2.3157194 -9 1 C-9 0.34 -9 -0.32 -9 -1 C-3.375 -2.25 -3.375 -2.25 0 0 Z " fill="#0D0603" transform="translate(259,219)"/>
<path d="M0 0 C2.475 0.495 2.475 0.495 5 1 C5 6.28 5 11.56 5 17 C4.67 17 4.34 17 4 17 C3.67 12.71 3.34 8.42 3 4 C2.01 3.67 1.02 3.34 0 3 C0 2.01 0 1.02 0 0 Z " fill="#160200" transform="translate(117,79)"/>
<path d="M0 0 C1.231394 2.46278801 1.07159196 4.2795055 1 7 C-0.98 7.99 -0.98 7.99 -3 9 C-3 6.36 -3 3.72 -3 1 C-2.01 0.67 -1.02 0.34 0 0 Z " fill="#010813" transform="translate(327,63)"/>
<path d="M0 0 C0.99 0.33 1.98 0.66 3 1 C3.33 1.99 3.66 2.98 4 4 C3.67 4.66 3.34 5.32 3 6 C1.35 6 -0.3 6 -2 6 C-2.33 5.01 -2.66 4.02 -3 3 C-2.01 2.01 -1.02 1.02 0 0 Z " fill="#0F0806" transform="translate(243,38)"/>
<path d="M0 0 C0.66 0 1.32 0 2 0 C2 3.3 2 6.6 2 10 C1.34 8.68 0.68 7.36 0 6 C-0.66 6 -1.32 6 -2 6 C-1.125 1.125 -1.125 1.125 0 0 Z " fill="#22100D" transform="translate(298,344)"/>
<path d="M0 0 C0.66 0 1.32 0 2 0 C3.83691257 3.78187881 4.15837626 5.94568308 3 10 C2.34 10 1.68 10 1 10 C0.67 6.7 0.34 3.4 0 0 Z " fill="#081233" transform="translate(71,342)"/>
<path d="M0 0 C0.66 0.33 1.32 0.66 2 1 C2.4140625 3.06640625 2.4140625 3.06640625 2.625 5.5625 C2.69976562 6.38878906 2.77453125 7.21507812 2.8515625 8.06640625 C2.92503906 9.02353516 2.92503906 9.02353516 3 10 C2.01 10 1.02 10 0 10 C-1.125 3.375 -1.125 3.375 0 0 Z " fill="#1C2437" transform="translate(331,262)"/>
<path d="M0 0 C0.66 0 1.32 0 2 0 C2 0.66 2 1.32 2 2 C2.99 2 3.98 2 5 2 C5.66 4.64 6.32 7.28 7 10 C3.60582235 6.87378374 1.3937282 4.43458973 0 0 Z " fill="#180907" transform="translate(43,366)"/>
<path d="M0 0 C-0.99 0.495 -0.99 0.495 -2 1 C-1.34 2.65 -0.68 4.3 0 6 C-3.36720387 4.60667426 -4.9859524 3.0210714 -7 0 C-4.3333581 -1.33332095 -2.83319697 -0.67102033 0 0 Z " fill="#0F0604" transform="translate(246,209)"/>
<path d="M0 0 C0.99 0 1.98 0 3 0 C3.66 0.99 4.32 1.98 5 3 C4.67 3.99 4.34 4.98 4 6 C2.68 6 1.36 6 0 6 C0 4.02 0 2.04 0 0 Z " fill="#0E152C" transform="translate(432,160)"/>
<path d="M0 0 C1.32 0.33 2.64 0.66 4 1 C3.67 5.29 3.34 9.58 3 14 C2.67 14 2.34 14 2 14 C1.93941406 13.32453125 1.87882812 12.6490625 1.81640625 11.953125 C1.73261719 11.06109375 1.64882812 10.1690625 1.5625 9.25 C1.48128906 8.36828125 1.40007812 7.4865625 1.31640625 6.578125 C1.03761535 4.30649548 0.61209423 2.20148177 0 0 Z " fill="#524138" transform="translate(117,82)"/>
<path d="M0 0 C0 0.66 0 1.32 0 2 C-6.625 5 -6.625 5 -10 5 C-10 4.34 -10 3.68 -10 3 C-9.01 3 -8.02 3 -7 3 C-6.67 2.34 -6.34 1.68 -6 1 C-3 0 -3 0 0 0 Z " fill="#111215" transform="translate(123,392)"/>
<path d="M0 0 C1.32 0 2.64 0 4 0 C4.103125 0.598125 4.20625 1.19625 4.3125 1.8125 C5.08876455 4.28243264 6.07088921 5.32251235 8 7 C4.65980694 6.40353695 2.49529367 5.31705841 0 3 C0 2.01 0 1.02 0 0 Z " fill="#0E0705" transform="translate(417,384)"/>
<path d="M0 0 C0.33 0 0.66 0 1 0 C1 3.63 1 7.26 1 11 C0.01 11 -0.98 11 -2 11 C-1.85892253 9.54119891 -1.71197585 8.08296449 -1.5625 6.625 C-1.48128906 5.81289063 -1.40007812 5.00078125 -1.31640625 4.1640625 C-1 2 -1 2 0 0 Z " fill="#131B35" transform="translate(510,348)"/>
<path d="M0 0 C0.33 0 0.66 0 1 0 C1.33 3.3 1.66 6.6 2 10 C1.01 10 0.02 10 -1 10 C-1.02689216 8.52093108 -1.04634621 7.04172517 -1.0625 5.5625 C-1.07410156 4.73878906 -1.08570313 3.91507812 -1.09765625 3.06640625 C-1 1 -1 1 0 0 Z " fill="#010E28" transform="translate(153,310)"/>
<path d="M0 0 C0.99 0 1.98 0 3 0 C3.33 1.98 3.66 3.96 4 6 C2.68 6 1.36 6 0 6 C0 4.02 0 2.04 0 0 Z " fill="#2F1C11" transform="translate(218,166)"/>
<path d="M0 0 C2.97 0.495 2.97 0.495 6 1 C5.01 1.495 5.01 1.495 4 2 C3.34786708 4.02463255 3.34786708 4.02463255 3 6 C1.68 5.34 0.36 4.68 -1 4 C-0.67 2.68 -0.34 1.36 0 0 Z " fill="#25211C" transform="translate(284,64)"/>
<path d="M0 0 C0.66 0 1.32 0 2 0 C2 0.66 2 1.32 2 2 C3.65 2.33 5.3 2.66 7 3 C7 3.66 7 4.32 7 5 C6.34 5 5.68 5 5 5 C4.67 5.99 4.34 6.98 4 8 C0 2.25 0 2.25 0 0 Z " fill="#1B120F" transform="translate(400,364)"/>
<path d="M0 0 C2.79872437 2.52788007 4.45773019 4.20411134 5 8 C4.01 7.67 3.02 7.34 2 7 C1.3125 4.9375 1.3125 4.9375 1 3 C0.01 3 -0.98 3 -2 3 C-2 2.34 -2 1.68 -2 1 C-1.34 0.67 -0.68 0.34 0 0 Z " fill="#06101E" transform="translate(144,55)"/>
<path d="M0 0 C0.33 0 0.66 0 1 0 C2.45295405 8.03501094 2.45295405 8.03501094 0.5625 12.0625 C0.046875 12.701875 -0.46875 13.34125 -1 14 C-1.5625 12.0625 -1.5625 12.0625 -2 10 C-1.67 9.67 -1.34 9.34 -1 9 C-0.76807135 7.48530552 -0.58784762 5.96245438 -0.4375 4.4375 C-0.35371094 3.61121094 -0.26992188 2.78492188 -0.18359375 1.93359375 C-0.12300781 1.29550781 -0.06242187 0.65742188 0 0 Z " fill="#3D0D08" transform="translate(477,336)"/>
<path d="M0 0 C1.32 0 2.64 0 4 0 C4 0.66 4 1.32 4 2 C3.01 2 2.02 2 1 2 C1.33 3.65 1.66 5.3 2 7 C1.34 7 0.68 7 0 7 C-0.33 7.66 -0.66 8.32 -1 9 C-1.33 7.68 -1.66 6.36 -2 5 C-1.34 5 -0.68 5 0 5 C0 3.35 0 1.7 0 0 Z " fill="#0C0507" transform="translate(298,270)"/>
<path d="M0 0 C1.32 0.33 2.64 0.66 4 1 C4 2.98 4 4.96 4 7 C3.01 7 2.02 7 1 7 C0.67 4.69 0.34 2.38 0 0 Z " fill="#02102B" transform="translate(505,249)"/>
<path d="M0 0 C0.99 0.33 1.98 0.66 3 1 C3.33 2.98 3.66 4.96 4 7 C3.01 7 2.02 7 1 7 C0.67 4.69 0.34 2.38 0 0 Z " fill="#221007" transform="translate(395,348)"/>
<path d="M0 0 C1.5625 1.125 1.5625 1.125 3 3 C2.6875 6.1875 2.6875 6.1875 2 9 C0 7 0 7 -0.125 3.375 C-0.08375 2.26125 -0.0425 1.1475 0 0 Z " fill="#210C06" transform="translate(217,348)"/>
<path d="M0 0 C0.66 0 1.32 0 2 0 C2 2.64 2 5.28 2 8 C1.01 8.33 0.02 8.66 -1 9 C-0.67 6.03 -0.34 3.06 0 0 Z " fill="#391B05" transform="translate(298,336)"/>
<path d="M0 0 C1.9375 0.3125 1.9375 0.3125 4 1 C4.33 1.99 4.66 2.98 5 4 C3.68 4.33 2.36 4.66 1 5 C0.67 3.35 0.34 1.7 0 0 Z " fill="#110604" transform="translate(464,64)"/>
<path d="M0 0 C2.475 0.99 2.475 0.99 5 2 C5 2.99 5 3.98 5 5 C3 5 1 5 -1 5 C-0.67 3.35 -0.34 1.7 0 0 Z " fill="#23252A" transform="translate(481,36)"/>
<path d="M0 0 C1.65 0 3.3 0 5 0 C5 0.66 5 1.32 5 2 C2.09399739 3.25664978 0.20395416 4 -3 4 C-3 3.34 -3 2.68 -3 2 C-2.01 2 -1.02 2 0 2 C0 1.34 0 0.68 0 0 Z " fill="#0F0F14" transform="translate(474,393)"/>
<path d="M0 0 C-1.25125384 3.75376152 -2.5652404 4.24073289 -6 6 C-6.66 6 -7.32 6 -8 6 C-8 5.34 -8 4.68 -8 4 C-7.01 4 -6.02 4 -5 4 C-4.67 3.01 -4.34 2.02 -4 1 C-2 0 -2 0 0 0 Z " fill="#191C22" transform="translate(132,386)"/>
<path d="M0 0 C1.5 1.25 1.5 1.25 3 3 C3 4.32 3 5.64 3 7 C2.34 7 1.68 7 1 7 C0.01 5.02 -0.98 3.04 -2 1 C-1.34 0.67 -0.68 0.34 0 0 Z " fill="#120907" transform="translate(224,366)"/>
<path d="M0 0 C2 2 2 2 2.125 5.625 C2.08375 6.73875 2.0425 7.8525 2 9 C1.67 8.01 1.34 7.02 1 6 C0.34 6 -0.32 6 -1 6 C-1.042721 4.33388095 -1.04063832 2.66617115 -1 1 C-0.67 0.67 -0.34 0.34 0 0 Z " fill="#061027" transform="translate(332,310)"/>
<path d="M0 0 C0.66 0 1.32 0 2 0 C2 1.98 2 3.96 2 6 C1.01 6.33 0.02 6.66 -1 7 C-1.04254356 5.00045254 -1.04080783 2.99958364 -1 1 C-0.67 0.67 -0.34 0.34 0 0 Z " fill="#1A0900" transform="translate(218,160)"/>
<path d="M0 0 C0.99 0.33 1.98 0.66 3 1 C1.35 2.65 -0.3 4.3 -2 6 C-2.33 5.01 -2.66 4.02 -3 3 C-2.01 2.01 -1.02 1.02 0 0 Z " fill="#02030F" transform="translate(135,381)"/>
<path d="M0 0 C1.32 0 2.64 0 4 0 C3.67 2.97 3.34 5.94 3 9 C2.67 9 2.34 9 2 9 C1.855625 7.88625 1.71125 6.7725 1.5625 5.625 C1.21627965 2.17857953 1.21627965 2.17857953 0 0 Z " fill="#301C08" transform="translate(475,284)"/>
<path d="M0 0 C1 3 1 3 -0.4375 6.1875 C-1.2109375 7.5796875 -1.2109375 7.5796875 -2 9 C-2.33 9 -2.66 9 -3 9 C-3 6.69 -3 4.38 -3 2 C-2.01 2 -1.02 2 0 2 C0 1.34 0 0.68 0 0 Z " fill="#000610" transform="translate(509,254)"/>
<path d="M0 0 C2.1519437 3.22791555 2.20086443 4.28400809 2 8 C1.34 8 0.68 8 0 8 C-0.38063221 5.6739143 -0.71269945 3.33944736 -1 1 C-0.67 0.67 -0.34 0.34 0 0 Z " fill="#2B0600" transform="translate(396,120)"/>
</svg>
